<?xml version="1.0" encoding="UTF-8"?>
<svg width="149px" height="149px" viewBox="0 0 149 149" version="1.1" xmlns="http://www.w3.org/2000/svg" xmlns:xlink="http://www.w3.org/1999/xlink">
    <title>Ga Ga Ga Ga Ga</title>
    <g id="Page-1" stroke="none" stroke-width="1" fill="none" fill-rule="evenodd">
        <g id="Ga-Ga-Ga-Ga-Ga" transform="translate(1.000000, 1.000000)">
            <rect id="Rectangle-Copy-167" fill="#434343" x="0" y="127.4" width="10" height="10"></rect>
            <rect id="Rectangle-Copy-83" fill="#434343" x="0" y="58.8" width="10" height="10"></rect>
            <rect id="Rectangle-Copy-13" fill="#D2D2D2" x="0" y="9.8" width="10" height="10"></rect>
            <rect id="Rectangle-Copy-169" fill="#1E1E1E" x="0" y="137.2" width="10" height="10"></rect>
            <rect id="Rectangle-Copy-84" fill="#1E1E1E" x="0" y="68.6" width="10" height="10"></rect>
            <rect id="Rectangle-Copy-186" fill="#1E1E1E" x="19.6" y="68.6" width="10" height="10"></rect>
            <rect id="Rectangle-Copy-27" fill="#E5E5E5" x="0" y="19.6" width="10" height="10"></rect>
            <rect id="Rectangle-Copy-171" fill="#B8B8B8" x="0" y="0" width="10" height="10"></rect>
            <rect id="Rectangle-Copy-85" fill="#1E1E1E" x="0" y="78.4" width="10" height="10"></rect>
            <rect id="Rectangle-Copy-172" fill="#FFFFFF" x="0" y="88.2" width="10" height="10"></rect>
            <rect id="Rectangle-Copy-41" fill="#AFADAC" x="0" y="29.4" width="10" height="10"></rect>
            <rect id="Rectangle-Copy-86" fill="#AFADAC" x="0" y="98" width="10" height="10"></rect>
            <rect id="Rectangle-Copy-55" fill="#ECECEC" x="0" y="39.2" width="10" height="10"></rect>
            <rect id="Rectangle-Copy-87" fill="#1E1E1E" x="0" y="107.8" width="10" height="10"></rect>
            <rect id="Rectangle-Copy-69" fill="#AFADAC" x="0" y="49" width="10" height="10"></rect>
            <rect id="Rectangle-Copy-88" fill="#FFFFFF" x="0" y="117.6" width="10" height="10"></rect>
            <rect id="Rectangle-Copy-179" fill="#000000" x="68.6" y="127.4" width="10" height="10"></rect>
            <rect id="Rectangle-Copy-14" fill="#FFFFFF" x="68.6" y="9.8" width="10" height="10"></rect>
            <rect id="Rectangle-Copy-181" fill="#1E1E1E" x="68.6" y="137.2" width="10" height="10"></rect>
            <rect id="Rectangle-Copy-90" fill="#D40D13" x="58.8" y="68.6" width="10" height="10"></rect>
            <rect id="Rectangle-Copy-107" fill="#434343" x="9.8" y="58.8" width="10" height="10"></rect>
            <rect id="Rectangle-Copy-108" fill="#1E1E1E" x="9.8" y="68.6" width="10" height="10"></rect>
            <rect id="Rectangle-Copy-109" fill="#D2D2D2" x="9.8" y="78.4" width="10" height="10"></rect>
            <rect id="Rectangle-Copy-119" fill="#434343" x="19.6" y="58.8" width="10" height="10"></rect>
            <rect id="Rectangle-Copy-121" fill="#1E1E1E" x="19.6" y="78.4" width="10" height="10"></rect>
            <rect id="Rectangle-Copy-132" fill="#AFADAC" x="29.4" y="68.6" width="10" height="10"></rect>
            <rect id="Rectangle-Copy-144" fill="#D40D13" x="39.2" y="68.6" width="10" height="10"></rect>
            <rect id="Rectangle-Copy-155" fill="#000000" x="49" y="58.8" width="10" height="10"></rect>
            <rect id="Rectangle-Copy-156" fill="#D40D13" x="49" y="68.6" width="10" height="10"></rect>
            <rect id="Rectangle-Copy-28" fill="#000000" x="68.6" y="19.6" width="10" height="10"></rect>
            <rect id="Rectangle-Copy-214" fill="#000000" x="58.8" y="58.8" width="10" height="10"></rect>
            <rect id="Rectangle-Copy-183" fill="#777777" x="68.6" y="0" width="10" height="10"></rect>
            <rect id="Rectangle-Copy-184" fill="#000000" x="68.6" y="88.2" width="10" height="10"></rect>
            <rect id="Rectangle-Copy-42" fill="#000000" x="68.6" y="29.4" width="10" height="10"></rect>
            <rect id="Rectangle-Copy-92" fill="#000000" x="68.6" y="98" width="10" height="10"></rect>
            <rect id="Rectangle-Copy-56" fill="#000000" x="68.6" y="39.2" width="10" height="10"></rect>
            <rect id="Rectangle-Copy-93" fill="#000000" x="68.6" y="107.8" width="10" height="10"></rect>
            <rect id="Rectangle-Copy-70" fill="#FFFFFF" x="68.6" y="49" width="10" height="10"></rect>
            <rect id="Rectangle-Copy-94" fill="#000000" x="68.6" y="117.6" width="10" height="10"></rect>
            <rect id="Rectangle-Copy-191" fill="#434343" x="9.8" y="127.4" width="10" height="10"></rect>
            <rect id="Rectangle-Copy-15" fill="#D2D2D2" x="9.8" y="9.8" width="10" height="10"></rect>
            <rect id="Rectangle-Copy-193" fill="#1E1E1E" x="9.8" y="137.2" width="10" height="10"></rect>
            <rect id="Rectangle-Copy-29" fill="#E5E5E5" x="9.8" y="19.6" width="10" height="10"></rect>
            <rect id="Rectangle-Copy-195" fill="#B8B8B8" x="9.8" y="0" width="10" height="10"></rect>
            <rect id="Rectangle-Copy-196" fill="#FFFFFF" x="9.8" y="88.2" width="10" height="10"></rect>
            <rect id="Rectangle-Copy-43" fill="#E6E6E6" x="9.8" y="29.4" width="10" height="10"></rect>
            <rect id="Rectangle-Copy-98" fill="#AFADAC" x="9.8" y="98" width="10" height="10"></rect>
            <rect id="Rectangle-Copy-57" fill="#AFADAC" x="9.8" y="39.2" width="10" height="10"></rect>
            <rect id="Rectangle-Copy-99" fill="#FFFFFF" x="9.8" y="107.8" width="10" height="10"></rect>
            <rect id="Rectangle-Copy-71" fill="#ECECEC" x="9.8" y="49" width="10" height="10"></rect>
            <rect id="Rectangle-Copy-100" fill="#FFFFFF" x="9.8" y="117.6" width="10" height="10"></rect>
            <rect id="Rectangle-Copy-203" fill="#434343" x="78.4" y="127.4" width="10" height="10"></rect>
            <rect id="Rectangle-Copy-16" fill="#434343" x="78.4" y="9.8" width="10" height="10"></rect>
            <rect id="Rectangle-Copy-205" fill="#1E1E1E" x="78.4" y="137.2" width="10" height="10"></rect>
            <rect id="Rectangle-Copy-30" fill="#434343" x="78.4" y="19.6" width="10" height="10"></rect>
            <rect id="Rectangle-Copy-222" fill="#000000" x="68.6" y="58.8" width="10" height="10"></rect>
            <rect id="Rectangle-Copy-207" fill="#434343" x="78.4" y="0" width="10" height="10"></rect>
            <rect id="Rectangle-Copy-208" fill="#434343" x="78.4" y="88.2" width="10" height="10"></rect>
            <rect id="Rectangle-Copy-44" fill="#DEDEDE" x="78.4" y="29.4" width="10" height="10"></rect>
            <rect id="Rectangle-Copy-224" fill="#D40D13" x="68.6" y="68.6" width="10" height="10"></rect>
            <rect id="Rectangle-Copy-104" fill="#AFADAC" x="78.4" y="98" width="10" height="10"></rect>
            <rect id="Rectangle-Copy-58" fill="#434343" x="78.4" y="39.2" width="10" height="10"></rect>
            <rect id="Rectangle-Copy-105" fill="#777777" x="78.4" y="107.8" width="10" height="10"></rect>
            <rect id="Rectangle-Copy-72" fill="#FFFFFF" x="78.4" y="49" width="10" height="10"></rect>
            <rect id="Rectangle-Copy-106" fill="#555555" x="78.4" y="117.6" width="10" height="10"></rect>
            <rect id="Rectangle-Copy-215" fill="#434343" x="19.6" y="127.4" width="10" height="10"></rect>
            <rect id="Rectangle-Copy-17" fill="#D2D2D2" x="19.6" y="9.8" width="10" height="10"></rect>
            <rect id="Rectangle-Copy-217" fill="#1E1E1E" x="19.6" y="137.2" width="10" height="10"></rect>
            <rect id="Rectangle-Copy-31" fill="#E5E5E5" x="19.6" y="19.6" width="10" height="10"></rect>
            <rect id="Rectangle-Copy-219" fill="#B8B8B8" x="19.6" y="0" width="10" height="10"></rect>
            <rect id="Rectangle-Copy-220" fill="#D2D2D2" x="19.6" y="88.2" width="10" height="10"></rect>
            <rect id="Rectangle-Copy-45" fill="#E6E6E6" x="19.6" y="29.4" width="10" height="10"></rect>
            <rect id="Rectangle-Copy-110" fill="#AFADAC" x="19.6" y="98" width="10" height="10"></rect>
            <rect id="Rectangle-Copy-59" fill="#ECECEC" x="19.6" y="39.2" width="10" height="10"></rect>
            <rect id="Rectangle-Copy-111" fill="#777777" x="19.6" y="107.8" width="10" height="10"></rect>
            <rect id="Rectangle-Copy-73" fill="#ECECEC" x="19.6" y="49" width="10" height="10"></rect>
            <rect id="Rectangle-Copy-112" fill="#555555" x="19.6" y="117.6" width="10" height="10"></rect>
            <rect id="Rectangle-Copy-227" fill="#434343" x="88.2" y="127.4" width="10" height="10"></rect>
            <rect id="Rectangle-Copy-113" fill="#434343" x="78.4" y="58.8" width="10" height="10"></rect>
            <rect id="Rectangle-Copy-18" fill="#1E1E1E" x="88.2" y="9.8" width="10" height="10"></rect>
            <rect id="Rectangle-Copy-229" fill="#1E1E1E" x="88.2" y="137.2" width="10" height="10"></rect>
            <rect id="Rectangle-Copy-114" fill="#D40D13" x="78.4" y="68.6" width="10" height="10"></rect>
            <rect id="Rectangle-Copy-32" fill="#1E1E1E" x="88.2" y="19.6" width="10" height="10"></rect>
            <rect id="Rectangle-Copy-231" fill="#1E1E1E" x="88.2" y="0" width="10" height="10"></rect>
            <rect id="Rectangle-Copy-115" fill="#434343" x="78.4" y="78.4" width="10" height="10"></rect>
            <rect id="Rectangle-Copy-232" fill="#AFADAC" x="88.2" y="88.2" width="10" height="10"></rect>
            <rect id="Rectangle-Copy-116" fill="#313131" x="88.2" y="98" width="10" height="10"></rect>
            <rect id="Rectangle-Copy-117" fill="#777777" x="88.2" y="107.8" width="10" height="10"></rect>
            <rect id="Rectangle-Copy-74" fill="#777777" x="88.2" y="49" width="10" height="10"></rect>
            <rect id="Rectangle-Copy-118" fill="#555555" x="88.2" y="117.6" width="10" height="10"></rect>
            <rect id="Rectangle-Copy-239" fill="#434343" x="39.2" y="127.4" width="10" height="10"></rect>
            <rect id="Rectangle-Copy-19" fill="#D2D2D2" x="29.4" y="9.8" width="10" height="10"></rect>
            <rect id="Rectangle-Copy-241" fill="#1E1E1E" x="29.4" y="137.2" width="10" height="10"></rect>
            <rect id="Rectangle-Copy-33" fill="#E5E5E5" x="29.4" y="19.6" width="10" height="10"></rect>
            <rect id="Rectangle-Copy-243" fill="#B8B8B8" x="29.4" y="0" width="10" height="10"></rect>
            <rect id="Rectangle-Copy-244" fill="#474747" x="29.4" y="88.2" width="10" height="10"></rect>
            <rect id="Rectangle-Copy-47" fill="#E6E6E6" x="29.4" y="29.4" width="10" height="10"></rect>
            <rect id="Rectangle-Copy-122" fill="#474747" x="29.4" y="98" width="10" height="10"></rect>
            <rect id="Rectangle-Copy-61" fill="#ECECEC" x="29.4" y="39.2" width="10" height="10"></rect>
            <rect id="Rectangle-Copy-123" fill="#777777" x="29.4" y="107.8" width="10" height="10"></rect>
            <rect id="Rectangle-Copy-75" fill="#ECECEC" x="29.4" y="49" width="10" height="10"></rect>
            <rect id="Rectangle-Copy-188" fill="#313131" x="29.4" y="58.8" width="10" height="10"></rect>
            <rect id="Rectangle-Copy-198" fill="#ECECEC" x="29.4" y="78.4" width="10" height="10"></rect>
            <rect id="Rectangle-Copy-202" fill="#000000" x="58.8" y="78.4" width="10" height="10"></rect>
            <rect id="Rectangle-Copy-238" fill="#000000" x="58.8" y="88.2" width="10" height="10"></rect>
            <rect id="Rectangle-Copy-212" fill="#000000" x="68.6" y="78.4" width="10" height="10"></rect>
            <rect id="Rectangle-Copy-124" fill="#555555" x="29.4" y="117.6" width="10" height="10"></rect>
            <rect id="Rectangle-Copy-251" fill="#434343" x="98" y="127.4" width="10" height="10"></rect>
            <rect id="Rectangle-Copy-125" fill="#777777" x="88.2" y="58.8" width="10" height="10"></rect>
            <rect id="Rectangle-Copy-20" fill="#000000" x="98" y="9.8" width="10" height="10"></rect>
            <rect id="Rectangle-Copy-253" fill="#1E1E1E" x="98" y="137.2" width="10" height="10"></rect>
            <rect id="Rectangle-Copy-126" fill="#D40D13" x="88.2" y="68.6" width="10" height="10"></rect>
            <rect id="Rectangle-Copy-255" fill="#000000" x="98" y="0" width="10" height="10"></rect>
            <rect id="Rectangle-Copy-127" fill="#FFFFFF" x="88.2" y="78.4" width="10" height="10"></rect>
            <rect id="Rectangle-Copy-256" fill="#AFADAC" x="98" y="88.2" width="10" height="10"></rect>
            <rect id="Rectangle-Copy-48" fill="#C7C7C7" x="88.2" y="29.4" width="10" height="10"></rect>
            <rect id="Rectangle-Copy-128" fill="#AFADAC" x="98" y="98" width="10" height="10"></rect>
            <rect id="Rectangle-Copy-62" fill="#777777" x="88.2" y="39.2" width="10" height="10"></rect>
            <rect id="Rectangle-Copy-129" fill="#777777" x="98" y="107.8" width="10" height="10"></rect>
            <rect id="Rectangle-Copy-76" fill="#DEDEDE" x="98" y="49" width="10" height="10"></rect>
            <rect id="Rectangle-Copy-130" fill="#474747" x="98" y="117.6" width="10" height="10"></rect>
            <rect id="Rectangle-Copy-263" fill="#434343" x="29.4" y="127.4" width="10" height="10"></rect>
            <rect id="Rectangle-Copy-21" fill="#D2D2D2" x="39.2" y="9.8" width="10" height="10"></rect>
            <rect id="Rectangle-Copy-265" fill="#1E1E1E" x="39.2" y="137.2" width="10" height="10"></rect>
            <rect id="Rectangle-Copy-35" fill="#E5E5E5" x="39.2" y="19.6" width="10" height="10"></rect>
            <rect id="Rectangle-Copy-267" fill="#B8B8B8" x="39.2" y="0" width="10" height="10"></rect>
            <rect id="Rectangle-Copy-268" fill="#474747" x="39.2" y="88.2" width="10" height="10"></rect>
            <rect id="Rectangle-Copy-49" fill="#ECECEC" x="39.2" y="29.4" width="10" height="10"></rect>
            <rect id="Rectangle-Copy-134" fill="#474747" x="39.2" y="98" width="10" height="10"></rect>
            <rect id="Rectangle-Copy-63" fill="#ECECEC" x="39.2" y="39.2" width="10" height="10"></rect>
            <rect id="Rectangle-Copy-135" fill="#777777" x="39.2" y="107.8" width="10" height="10"></rect>
            <rect id="Rectangle-Copy-77" fill="#FFFFFF" x="39.2" y="49" width="10" height="10"></rect>
            <rect id="Rectangle-Copy-190" fill="#ECECEC" x="39.2" y="58.8" width="10" height="10"></rect>
            <rect id="Rectangle-Copy-200" fill="#474747" x="39.2" y="78.4" width="10" height="10"></rect>
            <rect id="Rectangle-Copy-210" fill="#000000" x="49" y="78.4" width="10" height="10"></rect>
            <rect id="Rectangle-Copy-136" fill="#555555" x="39.2" y="117.6" width="10" height="10"></rect>
            <rect id="Rectangle-Copy-275" fill="#434343" x="107.8" y="127.4" width="10" height="10"></rect>
            <rect id="Rectangle-Copy-137" fill="#474747" x="98" y="58.8" width="10" height="10"></rect>
            <rect id="Rectangle-Copy-22" fill="#000000" x="107.8" y="9.8" width="10" height="10"></rect>
            <rect id="Rectangle-Copy-277" fill="#1E1E1E" x="107.8" y="137.2" width="10" height="10"></rect>
            <rect id="Rectangle-Copy-138" fill="#000000" x="98" y="68.6" width="10" height="10"></rect>
            <rect id="Rectangle-Copy-36" fill="#000000" x="98" y="19.6" width="10" height="10"></rect>
            <rect id="Rectangle-Copy-279" fill="#000000" x="107.8" y="0" width="10" height="10"></rect>
            <rect id="Rectangle-Copy-139" fill="#FFFFFF" x="98" y="78.4" width="10" height="10"></rect>
            <rect id="Rectangle-Copy-280" fill="#AFADAC" x="107.8" y="88.2" width="10" height="10"></rect>
            <rect id="Rectangle-Copy-50" fill="#000000" x="107.8" y="19.6" width="10" height="10"></rect>
            <rect id="Rectangle-Copy-234" fill="#C7C7C7" x="107.8" y="29.4" width="10" height="10"></rect>
            <rect id="Rectangle-Copy-236" fill="#DEDEDE" x="98" y="39.2" width="10" height="10"></rect>
            <rect id="Rectangle-Copy-140" fill="#313131" x="107.8" y="98" width="10" height="10"></rect>
            <rect id="Rectangle-Copy-64" fill="#777777" x="98" y="29.4" width="10" height="10"></rect>
            <rect id="Rectangle-Copy-226" fill="#777777" x="107.8" y="39.2" width="10" height="10"></rect>
            <rect id="Rectangle-Copy-141" fill="#313131" x="107.8" y="107.8" width="10" height="10"></rect>
            <rect id="Rectangle-Copy-78" fill="#000000" x="107.8" y="49" width="10" height="10"></rect>
            <rect id="Rectangle-Copy-142" fill="#313131" x="107.8" y="117.6" width="10" height="10"></rect>
            <rect id="Rectangle-Copy-287" fill="#000000" x="49" y="127.4" width="10" height="10"></rect>
            <rect id="Rectangle-Copy-23" fill="#FFFFFF" x="49" y="9.8" width="10" height="10"></rect>
            <rect id="Rectangle-Copy-289" fill="#1E1E1E" x="49" y="137.2" width="10" height="10"></rect>
            <rect id="Rectangle-Copy-37" fill="#ECECEC" x="49" y="19.6" width="10" height="10"></rect>
            <rect id="Rectangle-Copy-291" fill="#777777" x="49" y="0" width="10" height="10"></rect>
            <rect id="Rectangle-Copy-292" fill="#000000" x="49" y="88.2" width="10" height="10"></rect>
            <rect id="Rectangle-Copy-51" fill="#ECECEC" x="49" y="29.4" width="10" height="10"></rect>
            <rect id="Rectangle-Copy-146" fill="#000000" x="49" y="98" width="10" height="10"></rect>
            <rect id="Rectangle-Copy-65" fill="#000000" x="49" y="39.2" width="10" height="10"></rect>
            <rect id="Rectangle-Copy-147" fill="#000000" x="49" y="117.6" width="10" height="10"></rect>
            <rect id="Rectangle-Copy-79" fill="#FFFFFF" x="49" y="49" width="10" height="10"></rect>
            <rect id="Rectangle-Copy-148" fill="#000000" x="49" y="107.8" width="10" height="10"></rect>
            <rect id="Rectangle-Copy-299" fill="#434343" x="117.6" y="127.4" width="10" height="10"></rect>
            <rect id="Rectangle-Copy-149" fill="#C7C7C7" x="117.6" y="58.8" width="10" height="10"></rect>
            <rect id="Rectangle-Copy-178" fill="#C7C7C7" x="107.8" y="58.8" width="10" height="10"></rect>
            <rect id="Rectangle-Copy-24" fill="#555555" x="117.6" y="9.8" width="10" height="10"></rect>
            <rect id="Rectangle-Copy-301" fill="#1E1E1E" x="117.6" y="137.2" width="10" height="10"></rect>
            <rect id="Rectangle-Copy-150" fill="#FFFFFF" x="117.6" y="68.6" width="10" height="10"></rect>
            <rect id="Rectangle-Copy-174" fill="#000000" x="107.8" y="68.6" width="10" height="10"></rect>
            <rect id="Rectangle-Copy-176" fill="#FFFFFF" x="107.8" y="78.4" width="10" height="10"></rect>
            <rect id="Rectangle-Copy-38" fill="#777777" x="117.6" y="19.6" width="10" height="10"></rect>
            <rect id="Rectangle-Copy-303" fill="#434343" x="117.6" y="0" width="10" height="10"></rect>
            <rect id="Rectangle-Copy-151" fill="#FFFFFF" x="117.6" y="78.4" width="10" height="10"></rect>
            <rect id="Rectangle-Copy-304" fill="#AFADAC" x="117.6" y="88.2" width="10" height="10"></rect>
            <rect id="Rectangle-Copy-52" fill="#000000" x="117.6" y="29.4" width="10" height="10"></rect>
            <rect id="Rectangle-Copy-152" fill="#AFADAC" x="117.6" y="98" width="10" height="10"></rect>
            <rect id="Rectangle-Copy-66" fill="#DEDEDE" x="117.6" y="39.2" width="10" height="10"></rect>
            <rect id="Rectangle-Copy-153" fill="#777777" x="117.6" y="107.8" width="10" height="10"></rect>
            <rect id="Rectangle-Copy-80" fill="#777777" x="117.6" y="49" width="10" height="10"></rect>
            <rect id="Rectangle-Copy-154" fill="#555555" x="117.6" y="117.6" width="10" height="10"></rect>
            <rect id="Rectangle-Copy-311" fill="#434343" x="58.8" y="127.4" width="10" height="10"></rect>
            <rect id="Rectangle-Copy-25" fill="#FFFFFF" x="58.8" y="9.8" width="10" height="10"></rect>
            <rect id="Rectangle-Copy-313" fill="#1E1E1E" x="58.8" y="137.2" width="10" height="10"></rect>
            <rect id="Rectangle-Copy-39" fill="#000000" x="58.8" y="19.6" width="10" height="10"></rect>
            <rect id="Rectangle-Copy-315" fill="#777777" x="58.8" y="0" width="10" height="10"></rect>
            <rect id="Rectangle-Copy-53" fill="#000000" x="58.8" y="29.4" width="10" height="10"></rect>
            <rect id="Rectangle-Copy-158" fill="#777777" x="58.8" y="107.8" width="10" height="10"></rect>
            <rect id="Rectangle-Copy-67" fill="#000000" x="58.8" y="39.2" width="10" height="10"></rect>
            <rect id="Rectangle-Copy-159" fill="#000000" x="58.8" y="98" width="10" height="10"></rect>
            <rect id="Rectangle-Copy-81" fill="#FFFFFF" x="58.8" y="49" width="10" height="10"></rect>
            <rect id="Rectangle-Copy-160" fill="#555555" x="58.8" y="117.6" width="10" height="10"></rect>
            <rect id="Rectangle-Copy-323" fill="#434343" x="127.4" y="127.4" width="10" height="10"></rect>
            <rect id="Rectangle-Copy-633" fill="#434343" x="137.2" y="127.4" width="10" height="10"></rect>
            <rect id="Rectangle-Copy-161" fill="#FFFFFF" x="127.4" y="58.8" width="10" height="10"></rect>
            <rect id="Rectangle-Copy-316" fill="#FFFFFF" x="137.2" y="58.8" width="10" height="10"></rect>
            <rect id="Rectangle-Copy-26" fill="#555555" x="127.4" y="9.8" width="10" height="10"></rect>
            <rect id="Rectangle-Copy-34" fill="#000000" x="137.2" y="9.8" width="10" height="10"></rect>
            <rect id="Rectangle-Copy-325" fill="#1E1E1E" x="127.4" y="137.2" width="10" height="10"></rect>
            <rect id="Rectangle-Copy-636" fill="#1E1E1E" x="137.2" y="137.2" width="10" height="10"></rect>
            <rect id="Rectangle-Copy-162" fill="#000000" x="127.4" y="68.6" width="10" height="10"></rect>
            <rect id="Rectangle-Copy-637" fill="#FFFFFF" x="137.2" y="68.6" width="10" height="10"></rect>
            <rect id="Rectangle-Copy-40" fill="#777777" x="127.4" y="19.6" width="10" height="10"></rect>
            <rect id="Rectangle-Copy-46" fill="#000000" x="137.2" y="19.6" width="10" height="10"></rect>
            <rect id="Rectangle-Copy-327" fill="#434343" x="127.4" y="0" width="10" height="10"></rect>
            <rect id="Rectangle-Copy-639" fill="#000000" x="137.2" y="0" width="10" height="10"></rect>
            <rect id="Rectangle-Copy-163" fill="#FFFFFF" x="127.4" y="78.4" width="10" height="10"></rect>
            <rect id="Rectangle-Copy-640" fill="#000000" x="137.2" y="78.4" width="10" height="10"></rect>
            <rect id="Rectangle-Copy-328" fill="#FFFFFF" x="127.4" y="88.2" width="10" height="10"></rect>
            <rect id="Rectangle-Copy-641" fill="#000000" x="137.2" y="88.2" width="10" height="10"></rect>
            <rect id="Rectangle-Copy-54" fill="#C7C7C7" x="127.4" y="29.4" width="10" height="10"></rect>
            <rect id="Rectangle-Copy-60" fill="#C7C7C7" x="137.2" y="29.4" width="10" height="10"></rect>
            <rect id="Rectangle-Copy-164" fill="#FFFFFF" x="127.4" y="98" width="10" height="10"></rect>
            <rect id="Rectangle-Copy-643" fill="#FFFFFF" x="137.2" y="98" width="10" height="10"></rect>
            <rect id="Rectangle-Copy-68" fill="#DEDEDE" x="127.4" y="39.2" width="10" height="10"></rect>
            <rect id="Rectangle-Copy-89" fill="#FFFFFF" x="137.2" y="39.2" width="10" height="10"></rect>
            <rect id="Rectangle-Copy-165" fill="#777777" x="127.4" y="107.8" width="10" height="10"></rect>
            <rect id="Rectangle-Copy-645" fill="#777777" x="137.2" y="107.8" width="10" height="10"></rect>
            <rect id="Rectangle-Copy-82" fill="#000000" x="127.4" y="49" width="10" height="10"></rect>
            <rect id="Rectangle-Copy-91" fill="#C7C7C7" x="137.2" y="49" width="10" height="10"></rect>
            <rect id="Rectangle-Copy-166" fill="#555555" x="127.4" y="117.6" width="10" height="10"></rect>
            <rect id="Rectangle-Copy-647" fill="#555555" x="137.2" y="117.6" width="10" height="10"></rect>
            <rect id="Rectangle" stroke="#000000" x="-0.5" y="-0.5" width="148" height="148"></rect>
        </g>
    </g>
</svg>