<?xml version="1.0" encoding="UTF-8"?>
<svg width="149px" height="149px" viewBox="0 0 149 149" version="1.1" xmlns="http://www.w3.org/2000/svg" xmlns:xlink="http://www.w3.org/1999/xlink">
    <title>Autobahn</title>
    <g id="Page-1" stroke="none" stroke-width="1" fill="none" fill-rule="evenodd">
        <g id="Autobahn" transform="translate(1.000000, 1.000000)">
            <rect id="Rectangle-Copy-167" fill="#2678C3" x="0" y="127.4" width="10" height="10"></rect>
            <rect id="Rectangle-Copy-83" fill="#2678C3" x="0" y="58.8" width="10" height="10"></rect>
            <rect id="Rectangle-Copy-13" fill="#2678C3" x="0" y="9.8" width="10" height="10"></rect>
            <rect id="Rectangle-Copy-169" fill="#2678C3" x="0" y="137.2" width="10" height="10"></rect>
            <rect id="Rectangle-Copy-84" fill="#2678C3" x="0" y="68.6" width="10" height="10"></rect>
            <rect id="Rectangle-Copy-186" fill="#2678C3" x="19.6" y="68.6" width="10" height="10"></rect>
            <rect id="Rectangle-Copy-27" fill="#2678C3" x="0" y="19.6" width="10" height="10"></rect>
            <rect id="Rectangle-Copy-171" fill="#2678C3" x="0" y="0" width="10" height="10"></rect>
            <rect id="Rectangle-Copy-85" fill="#2678C3" x="0" y="78.4" width="10" height="10"></rect>
            <rect id="Rectangle-Copy-172" fill="#2678C3" x="0" y="88.2" width="10" height="10"></rect>
            <rect id="Rectangle-Copy-41" fill="#2678C3" x="0" y="29.4" width="10" height="10"></rect>
            <rect id="Rectangle-Copy-86" fill="#2678C3" x="0" y="98" width="10" height="10"></rect>
            <rect id="Rectangle-Copy-55" fill="#2678C3" x="0" y="39.2" width="10" height="10"></rect>
            <rect id="Rectangle-Copy-87" fill="#2678C3" x="0" y="107.8" width="10" height="10"></rect>
            <rect id="Rectangle-Copy-69" fill="#2678C3" x="0" y="49" width="10" height="10"></rect>
            <rect id="Rectangle-Copy-88" fill="#2678C3" x="0" y="117.6" width="10" height="10"></rect>
            <rect id="Rectangle-Copy-179" fill="#2678C3" x="68.6" y="127.4" width="10" height="10"></rect>
            <rect id="Rectangle-Copy-14" fill="#2678C3" x="68.6" y="9.8" width="10" height="10"></rect>
            <rect id="Rectangle-Copy-181" fill="#2678C3" x="68.6" y="137.2" width="10" height="10"></rect>
            <rect id="Rectangle-Copy-90" fill="#FFFFFF" x="58.8" y="68.6" width="10" height="10"></rect>
            <rect id="Rectangle-Copy-107" fill="#2678C3" x="9.8" y="58.8" width="10" height="10"></rect>
            <rect id="Rectangle-Copy-108" fill="#2678C3" x="9.8" y="68.6" width="10" height="10"></rect>
            <rect id="Rectangle-Copy-109" fill="#2678C3" x="9.8" y="78.4" width="10" height="10"></rect>
            <rect id="Rectangle-Copy-119" fill="#2678C3" x="19.6" y="58.8" width="10" height="10"></rect>
            <rect id="Rectangle-Copy-121" fill="#2678C3" x="19.6" y="78.4" width="10" height="10"></rect>
            <rect id="Rectangle-Copy-132" fill="#2678C3" x="29.4" y="68.6" width="10" height="10"></rect>
            <rect id="Rectangle-Copy-144" fill="#2678C3" x="39.2" y="68.6" width="10" height="10"></rect>
            <rect id="Rectangle-Copy-155" fill="#2678C3" x="49" y="58.8" width="10" height="10"></rect>
            <rect id="Rectangle-Copy-156" fill="#2678C3" x="49" y="68.6" width="10" height="10"></rect>
            <rect id="Rectangle-Copy-28" fill="#2678C3" x="68.6" y="19.6" width="10" height="10"></rect>
            <rect id="Rectangle-Copy-214" fill="#FFFFFF" x="58.8" y="58.8" width="10" height="10"></rect>
            <rect id="Rectangle-Copy-183" fill="#2678C3" x="68.6" y="0" width="10" height="10"></rect>
            <rect id="Rectangle-Copy-184" fill="#FFFFFF" x="68.6" y="88.2" width="10" height="10"></rect>
            <rect id="Rectangle-Copy-42" fill="#2678C3" x="68.6" y="29.4" width="10" height="10"></rect>
            <rect id="Rectangle-Copy-92" fill="#FFFFFF" x="68.6" y="98" width="10" height="10"></rect>
            <rect id="Rectangle-Copy-56" fill="#FFFFFF" x="68.6" y="39.2" width="10" height="10"></rect>
            <rect id="Rectangle-Copy-93" fill="#FFFFFF" x="68.6" y="107.8" width="10" height="10"></rect>
            <rect id="Rectangle-Copy-70" fill="#FFFFFF" x="68.6" y="49" width="10" height="10"></rect>
            <rect id="Rectangle-Copy-94" fill="#EBEBEB" x="68.6" y="117.6" width="10" height="10"></rect>
            <rect id="Rectangle-Copy-191" fill="#2678C3" x="9.8" y="127.4" width="10" height="10"></rect>
            <rect id="Rectangle-Copy-15" fill="#2678C3" x="9.8" y="9.8" width="10" height="10"></rect>
            <rect id="Rectangle-Copy-193" fill="#2678C3" x="9.8" y="137.2" width="10" height="10"></rect>
            <rect id="Rectangle-Copy-29" fill="#2678C3" x="9.8" y="19.6" width="10" height="10"></rect>
            <rect id="Rectangle-Copy-195" fill="#2678C3" x="9.8" y="0" width="10" height="10"></rect>
            <rect id="Rectangle-Copy-196" fill="#2678C3" x="9.8" y="88.2" width="10" height="10"></rect>
            <rect id="Rectangle-Copy-43" fill="#2678C3" x="9.8" y="29.4" width="10" height="10"></rect>
            <rect id="Rectangle-Copy-98" fill="#2678C3" x="9.8" y="98" width="10" height="10"></rect>
            <rect id="Rectangle-Copy-57" fill="#2678C3" x="9.8" y="39.2" width="10" height="10"></rect>
            <rect id="Rectangle-Copy-99" fill="#2678C3" x="9.8" y="107.8" width="10" height="10"></rect>
            <rect id="Rectangle-Copy-71" fill="#2678C3" x="9.8" y="49" width="10" height="10"></rect>
            <rect id="Rectangle-Copy-100" fill="#2678C3" x="9.8" y="117.6" width="10" height="10"></rect>
            <rect id="Rectangle-Copy-203" fill="#2678C3" x="78.4" y="127.4" width="10" height="10"></rect>
            <rect id="Rectangle-Copy-16" fill="#2678C3" x="78.4" y="9.8" width="10" height="10"></rect>
            <rect id="Rectangle-Copy-205" fill="#2678C3" x="78.4" y="137.2" width="10" height="10"></rect>
            <rect id="Rectangle-Copy-30" fill="#2678C3" x="78.4" y="19.6" width="10" height="10"></rect>
            <rect id="Rectangle-Copy-222" fill="#FFFFFF" x="68.6" y="58.8" width="10" height="10"></rect>
            <rect id="Rectangle-Copy-207" fill="#2678C3" x="78.4" y="0" width="10" height="10"></rect>
            <rect id="Rectangle-Copy-208" fill="#FFFFFF" x="78.4" y="88.2" width="10" height="10"></rect>
            <rect id="Rectangle-Copy-44" fill="#2678C3" x="78.4" y="29.4" width="10" height="10"></rect>
            <rect id="Rectangle-Copy-224" fill="#FFFFFF" x="68.6" y="68.6" width="10" height="10"></rect>
            <rect id="Rectangle-Copy-104" fill="#FFFFFF" x="78.4" y="98" width="10" height="10"></rect>
            <rect id="Rectangle-Copy-58" fill="#FFFFFF" x="78.4" y="39.2" width="10" height="10"></rect>
            <rect id="Rectangle-Copy-105" fill="#FFFFFF" x="78.4" y="107.8" width="10" height="10"></rect>
            <rect id="Rectangle-Copy-72" fill="#FFFFFF" x="78.4" y="49" width="10" height="10"></rect>
            <rect id="Rectangle-Copy-106" fill="#EBEBEB" x="78.4" y="117.6" width="10" height="10"></rect>
            <rect id="Rectangle-Copy-215" fill="#2678C3" x="19.6" y="127.4" width="10" height="10"></rect>
            <rect id="Rectangle-Copy-17" fill="#2678C3" x="19.6" y="9.8" width="10" height="10"></rect>
            <rect id="Rectangle-Copy-217" fill="#2678C3" x="19.6" y="137.2" width="10" height="10"></rect>
            <rect id="Rectangle-Copy-31" fill="#2678C3" x="19.6" y="19.6" width="10" height="10"></rect>
            <rect id="Rectangle-Copy-219" fill="#2678C3" x="19.6" y="0" width="10" height="10"></rect>
            <rect id="Rectangle-Copy-220" fill="#2678C3" x="19.6" y="88.2" width="10" height="10"></rect>
            <rect id="Rectangle-Copy-45" fill="#2678C3" x="19.6" y="29.4" width="10" height="10"></rect>
            <rect id="Rectangle-Copy-110" fill="#2678C3" x="19.6" y="98" width="10" height="10"></rect>
            <rect id="Rectangle-Copy-59" fill="#2678C3" x="19.6" y="39.2" width="10" height="10"></rect>
            <rect id="Rectangle-Copy-111" fill="#2678C3" x="19.6" y="107.8" width="10" height="10"></rect>
            <rect id="Rectangle-Copy-73" fill="#2678C3" x="19.6" y="49" width="10" height="10"></rect>
            <rect id="Rectangle-Copy-112" fill="#2678C3" x="19.6" y="117.6" width="10" height="10"></rect>
            <rect id="Rectangle-Copy-227" fill="#2678C3" x="88.2" y="127.4" width="10" height="10"></rect>
            <rect id="Rectangle-Copy-113" fill="#FFFFFF" x="78.4" y="58.8" width="10" height="10"></rect>
            <rect id="Rectangle-Copy-18" fill="#2678C3" x="88.2" y="9.8" width="10" height="10"></rect>
            <rect id="Rectangle-Copy-229" fill="#2678C3" x="88.2" y="137.2" width="10" height="10"></rect>
            <rect id="Rectangle-Copy-114" fill="#FFFFFF" x="78.4" y="68.6" width="10" height="10"></rect>
            <rect id="Rectangle-Copy-32" fill="#2678C3" x="88.2" y="19.6" width="10" height="10"></rect>
            <rect id="Rectangle-Copy-231" fill="#2678C3" x="88.2" y="0" width="10" height="10"></rect>
            <rect id="Rectangle-Copy-115" fill="#FFFFFF" x="78.4" y="78.4" width="10" height="10"></rect>
            <rect id="Rectangle-Copy-232" fill="#FFFFFF" x="88.2" y="88.2" width="10" height="10"></rect>
            <rect id="Rectangle-Copy-116" fill="#FFFFFF" x="88.2" y="98" width="10" height="10"></rect>
            <rect id="Rectangle-Copy-117" fill="#FFFFFF" x="88.2" y="107.8" width="10" height="10"></rect>
            <rect id="Rectangle-Copy-74" fill="#2678C3" x="88.2" y="49" width="10" height="10"></rect>
            <rect id="Rectangle-Copy-118" fill="#EBEBEB" x="88.2" y="117.6" width="10" height="10"></rect>
            <rect id="Rectangle-Copy-239" fill="#2678C3" x="39.2" y="127.4" width="10" height="10"></rect>
            <rect id="Rectangle-Copy-19" fill="#2678C3" x="29.4" y="9.8" width="10" height="10"></rect>
            <rect id="Rectangle-Copy-241" fill="#2678C3" x="29.4" y="137.2" width="10" height="10"></rect>
            <rect id="Rectangle-Copy-33" fill="#2678C3" x="29.4" y="19.6" width="10" height="10"></rect>
            <rect id="Rectangle-Copy-243" fill="#2678C3" x="29.4" y="0" width="10" height="10"></rect>
            <rect id="Rectangle-Copy-244" fill="#2678C3" x="29.4" y="88.2" width="10" height="10"></rect>
            <rect id="Rectangle-Copy-47" fill="#2678C3" x="29.4" y="29.4" width="10" height="10"></rect>
            <rect id="Rectangle-Copy-122" fill="#2678C3" x="29.4" y="98" width="10" height="10"></rect>
            <rect id="Rectangle-Copy-61" fill="#2678C3" x="29.4" y="39.2" width="10" height="10"></rect>
            <rect id="Rectangle-Copy-123" fill="#2678C3" x="29.4" y="107.8" width="10" height="10"></rect>
            <rect id="Rectangle-Copy-75" fill="#2678C3" x="29.4" y="49" width="10" height="10"></rect>
            <rect id="Rectangle-Copy-188" fill="#2678C3" x="29.4" y="58.8" width="10" height="10"></rect>
            <rect id="Rectangle-Copy-198" fill="#2678C3" x="29.4" y="78.4" width="10" height="10"></rect>
            <rect id="Rectangle-Copy-202" fill="#FFFFFF" x="58.8" y="78.4" width="10" height="10"></rect>
            <rect id="Rectangle-Copy-238" fill="#FFFFFF" x="58.8" y="88.2" width="10" height="10"></rect>
            <rect id="Rectangle-Copy-212" fill="#FFFFFF" x="68.6" y="78.4" width="10" height="10"></rect>
            <rect id="Rectangle-Copy-124" fill="#2678C3" x="29.4" y="117.6" width="10" height="10"></rect>
            <rect id="Rectangle-Copy-251" fill="#2678C3" x="98" y="127.4" width="10" height="10"></rect>
            <rect id="Rectangle-Copy-125" fill="#2678C3" x="88.2" y="58.8" width="10" height="10"></rect>
            <rect id="Rectangle-Copy-20" fill="#2678C3" x="98" y="9.8" width="10" height="10"></rect>
            <rect id="Rectangle-Copy-253" fill="#2678C3" x="98" y="137.2" width="10" height="10"></rect>
            <rect id="Rectangle-Copy-126" fill="#2678C3" x="88.2" y="68.6" width="10" height="10"></rect>
            <rect id="Rectangle-Copy-255" fill="#2678C3" x="98" y="0" width="10" height="10"></rect>
            <rect id="Rectangle-Copy-127" fill="#2678C3" x="88.2" y="78.4" width="10" height="10"></rect>
            <rect id="Rectangle-Copy-256" fill="#2678C3" x="98" y="88.2" width="10" height="10"></rect>
            <rect id="Rectangle-Copy-48" fill="#2678C3" x="88.2" y="29.4" width="10" height="10"></rect>
            <rect id="Rectangle-Copy-128" fill="#2678C3" x="98" y="98" width="10" height="10"></rect>
            <rect id="Rectangle-Copy-62" fill="#2678C3" x="88.2" y="39.2" width="10" height="10"></rect>
            <rect id="Rectangle-Copy-129" fill="#2678C3" x="98" y="107.8" width="10" height="10"></rect>
            <rect id="Rectangle-Copy-76" fill="#2678C3" x="98" y="49" width="10" height="10"></rect>
            <rect id="Rectangle-Copy-130" fill="#2678C3" x="98" y="117.6" width="10" height="10"></rect>
            <rect id="Rectangle-Copy-263" fill="#2678C3" x="29.4" y="127.4" width="10" height="10"></rect>
            <rect id="Rectangle-Copy-21" fill="#2678C3" x="39.2" y="9.8" width="10" height="10"></rect>
            <rect id="Rectangle-Copy-265" fill="#2678C3" x="39.2" y="137.2" width="10" height="10"></rect>
            <rect id="Rectangle-Copy-35" fill="#2678C3" x="39.2" y="19.6" width="10" height="10"></rect>
            <rect id="Rectangle-Copy-267" fill="#2678C3" x="39.2" y="0" width="10" height="10"></rect>
            <rect id="Rectangle-Copy-268" fill="#2678C3" x="39.2" y="88.2" width="10" height="10"></rect>
            <rect id="Rectangle-Copy-49" fill="#2678C3" x="39.2" y="29.4" width="10" height="10"></rect>
            <rect id="Rectangle-Copy-134" fill="#2678C3" x="39.2" y="98" width="10" height="10"></rect>
            <rect id="Rectangle-Copy-63" fill="#2678C3" x="39.2" y="39.2" width="10" height="10"></rect>
            <rect id="Rectangle-Copy-135" fill="#2678C3" x="39.2" y="107.8" width="10" height="10"></rect>
            <rect id="Rectangle-Copy-77" fill="#2678C3" x="39.2" y="49" width="10" height="10"></rect>
            <rect id="Rectangle-Copy-190" fill="#2678C3" x="39.2" y="58.8" width="10" height="10"></rect>
            <rect id="Rectangle-Copy-200" fill="#2678C3" x="39.2" y="78.4" width="10" height="10"></rect>
            <rect id="Rectangle-Copy-210" fill="#2678C3" x="49" y="78.4" width="10" height="10"></rect>
            <rect id="Rectangle-Copy-136" fill="#2678C3" x="39.2" y="117.6" width="10" height="10"></rect>
            <rect id="Rectangle-Copy-275" fill="#2678C3" x="107.8" y="127.4" width="10" height="10"></rect>
            <rect id="Rectangle-Copy-137" fill="#2678C3" x="98" y="58.8" width="10" height="10"></rect>
            <rect id="Rectangle-Copy-22" fill="#2678C3" x="107.8" y="9.8" width="10" height="10"></rect>
            <rect id="Rectangle-Copy-277" fill="#2678C3" x="107.8" y="137.2" width="10" height="10"></rect>
            <rect id="Rectangle-Copy-138" fill="#2678C3" x="98" y="68.6" width="10" height="10"></rect>
            <rect id="Rectangle-Copy-36" fill="#2678C3" x="98" y="19.6" width="10" height="10"></rect>
            <rect id="Rectangle-Copy-279" fill="#2678C3" x="107.8" y="0" width="10" height="10"></rect>
            <rect id="Rectangle-Copy-139" fill="#2678C3" x="98" y="78.4" width="10" height="10"></rect>
            <rect id="Rectangle-Copy-280" fill="#2678C3" x="107.8" y="88.2" width="10" height="10"></rect>
            <rect id="Rectangle-Copy-50" fill="#2678C3" x="107.8" y="19.6" width="10" height="10"></rect>
            <rect id="Rectangle-Copy-234" fill="#2678C3" x="107.8" y="29.4" width="10" height="10"></rect>
            <rect id="Rectangle-Copy-236" fill="#2678C3" x="98" y="39.2" width="10" height="10"></rect>
            <rect id="Rectangle-Copy-140" fill="#2678C3" x="107.8" y="98" width="10" height="10"></rect>
            <rect id="Rectangle-Copy-64" fill="#2678C3" x="98" y="29.4" width="10" height="10"></rect>
            <rect id="Rectangle-Copy-226" fill="#2678C3" x="107.8" y="39.2" width="10" height="10"></rect>
            <rect id="Rectangle-Copy-141" fill="#2678C3" x="107.8" y="107.8" width="10" height="10"></rect>
            <rect id="Rectangle-Copy-78" fill="#2678C3" x="107.8" y="49" width="10" height="10"></rect>
            <rect id="Rectangle-Copy-142" fill="#2678C3" x="107.8" y="117.6" width="10" height="10"></rect>
            <rect id="Rectangle-Copy-287" fill="#2678C3" x="49" y="127.4" width="10" height="10"></rect>
            <rect id="Rectangle-Copy-23" fill="#2678C3" x="49" y="9.8" width="10" height="10"></rect>
            <rect id="Rectangle-Copy-289" fill="#2678C3" x="49" y="137.2" width="10" height="10"></rect>
            <rect id="Rectangle-Copy-37" fill="#2678C3" x="49" y="19.6" width="10" height="10"></rect>
            <rect id="Rectangle-Copy-291" fill="#2678C3" x="49" y="0" width="10" height="10"></rect>
            <rect id="Rectangle-Copy-292" fill="#FFFFFF" x="49" y="88.2" width="10" height="10"></rect>
            <rect id="Rectangle-Copy-51" fill="#2678C3" x="49" y="29.4" width="10" height="10"></rect>
            <rect id="Rectangle-Copy-146" fill="#FFFFFF" x="49" y="98" width="10" height="10"></rect>
            <rect id="Rectangle-Copy-65" fill="#2678C3" x="49" y="39.2" width="10" height="10"></rect>
            <rect id="Rectangle-Copy-147" fill="#EBEBEB" x="49" y="117.6" width="10" height="10"></rect>
            <rect id="Rectangle-Copy-79" fill="#2678C3" x="49" y="49" width="10" height="10"></rect>
            <rect id="Rectangle-Copy-148" fill="#FFFFFF" x="49" y="107.8" width="10" height="10"></rect>
            <rect id="Rectangle-Copy-299" fill="#2678C3" x="117.6" y="127.4" width="10" height="10"></rect>
            <rect id="Rectangle-Copy-149" fill="#2678C3" x="117.6" y="58.8" width="10" height="10"></rect>
            <rect id="Rectangle-Copy-178" fill="#2678C3" x="107.8" y="58.8" width="10" height="10"></rect>
            <rect id="Rectangle-Copy-24" fill="#2678C3" x="117.6" y="9.8" width="10" height="10"></rect>
            <rect id="Rectangle-Copy-301" fill="#2678C3" x="117.6" y="137.2" width="10" height="10"></rect>
            <rect id="Rectangle-Copy-150" fill="#2678C3" x="117.6" y="68.6" width="10" height="10"></rect>
            <rect id="Rectangle-Copy-174" fill="#2678C3" x="107.8" y="68.6" width="10" height="10"></rect>
            <rect id="Rectangle-Copy-176" fill="#2678C3" x="107.8" y="78.4" width="10" height="10"></rect>
            <rect id="Rectangle-Copy-38" fill="#2678C3" x="117.6" y="19.6" width="10" height="10"></rect>
            <rect id="Rectangle-Copy-303" fill="#2678C3" x="117.6" y="0" width="10" height="10"></rect>
            <rect id="Rectangle-Copy-151" fill="#2678C3" x="117.6" y="78.4" width="10" height="10"></rect>
            <rect id="Rectangle-Copy-304" fill="#2678C3" x="117.6" y="88.2" width="10" height="10"></rect>
            <rect id="Rectangle-Copy-52" fill="#2678C3" x="117.6" y="29.4" width="10" height="10"></rect>
            <rect id="Rectangle-Copy-152" fill="#2678C3" x="117.6" y="98" width="10" height="10"></rect>
            <rect id="Rectangle-Copy-66" fill="#2678C3" x="117.6" y="39.2" width="10" height="10"></rect>
            <rect id="Rectangle-Copy-153" fill="#2678C3" x="117.6" y="107.8" width="10" height="10"></rect>
            <rect id="Rectangle-Copy-80" fill="#2678C3" x="117.6" y="49" width="10" height="10"></rect>
            <rect id="Rectangle-Copy-154" fill="#2678C3" x="117.6" y="117.6" width="10" height="10"></rect>
            <rect id="Rectangle-Copy-311" fill="#2678C3" x="58.8" y="127.4" width="10" height="10"></rect>
            <rect id="Rectangle-Copy-25" fill="#2678C3" x="58.8" y="9.8" width="10" height="10"></rect>
            <rect id="Rectangle-Copy-313" fill="#2678C3" x="58.8" y="137.2" width="10" height="10"></rect>
            <rect id="Rectangle-Copy-39" fill="#2678C3" x="58.8" y="19.6" width="10" height="10"></rect>
            <rect id="Rectangle-Copy-315" fill="#2678C3" x="58.8" y="0" width="10" height="10"></rect>
            <rect id="Rectangle-Copy-53" fill="#2678C3" x="58.8" y="29.4" width="10" height="10"></rect>
            <rect id="Rectangle-Copy-158" fill="#FFFFFF" x="58.8" y="107.8" width="10" height="10"></rect>
            <rect id="Rectangle-Copy-67" fill="#FFFFFF" x="58.8" y="39.2" width="10" height="10"></rect>
            <rect id="Rectangle-Copy-159" fill="#FFFFFF" x="58.8" y="98" width="10" height="10"></rect>
            <rect id="Rectangle-Copy-81" fill="#FFFFFF" x="58.8" y="49" width="10" height="10"></rect>
            <rect id="Rectangle-Copy-160" fill="#EBEBEB" x="58.8" y="117.6" width="10" height="10"></rect>
            <rect id="Rectangle-Copy-323" fill="#2678C3" x="127.4" y="127.4" width="10" height="10"></rect>
            <rect id="Rectangle-Copy-633" fill="#2678C3" x="137.2" y="127.4" width="10" height="10"></rect>
            <rect id="Rectangle-Copy-161" fill="#2678C3" x="127.4" y="58.8" width="10" height="10"></rect>
            <rect id="Rectangle-Copy-316" fill="#2678C3" x="137.2" y="58.8" width="10" height="10"></rect>
            <rect id="Rectangle-Copy-26" fill="#2678C3" x="127.4" y="9.8" width="10" height="10"></rect>
            <rect id="Rectangle-Copy-34" fill="#2678C3" x="137.2" y="9.8" width="10" height="10"></rect>
            <rect id="Rectangle-Copy-325" fill="#2678C3" x="127.4" y="137.2" width="10" height="10"></rect>
            <rect id="Rectangle-Copy-636" fill="#2678C3" x="137.2" y="137.2" width="10" height="10"></rect>
            <rect id="Rectangle-Copy-162" fill="#2678C3" x="127.4" y="68.6" width="10" height="10"></rect>
            <rect id="Rectangle-Copy-637" fill="#2678C3" x="137.2" y="68.6" width="10" height="10"></rect>
            <rect id="Rectangle-Copy-40" fill="#2678C3" x="127.4" y="19.6" width="10" height="10"></rect>
            <rect id="Rectangle-Copy-46" fill="#2678C3" x="137.2" y="19.6" width="10" height="10"></rect>
            <rect id="Rectangle-Copy-327" fill="#2678C3" x="127.4" y="0" width="10" height="10"></rect>
            <rect id="Rectangle-Copy-639" fill="#2678C3" x="137.2" y="0" width="10" height="10"></rect>
            <rect id="Rectangle-Copy-163" fill="#2678C3" x="127.4" y="78.4" width="10" height="10"></rect>
            <rect id="Rectangle-Copy-640" fill="#2678C3" x="137.2" y="78.4" width="10" height="10"></rect>
            <rect id="Rectangle-Copy-328" fill="#2678C3" x="127.4" y="88.2" width="10" height="10"></rect>
            <rect id="Rectangle-Copy-641" fill="#2678C3" x="137.2" y="88.2" width="10" height="10"></rect>
            <rect id="Rectangle-Copy-54" fill="#2678C3" x="127.4" y="29.4" width="10" height="10"></rect>
            <rect id="Rectangle-Copy-60" fill="#2678C3" x="137.2" y="29.4" width="10" height="10"></rect>
            <rect id="Rectangle-Copy-164" fill="#2678C3" x="127.4" y="98" width="10" height="10"></rect>
            <rect id="Rectangle-Copy-643" fill="#2678C3" x="137.2" y="98" width="10" height="10"></rect>
            <rect id="Rectangle-Copy-68" fill="#2678C3" x="127.4" y="39.2" width="10" height="10"></rect>
            <rect id="Rectangle-Copy-89" fill="#2678C3" x="137.2" y="39.2" width="10" height="10"></rect>
            <rect id="Rectangle-Copy-165" fill="#2678C3" x="127.4" y="107.8" width="10" height="10"></rect>
            <rect id="Rectangle-Copy-645" fill="#2678C3" x="137.2" y="107.8" width="10" height="10"></rect>
            <rect id="Rectangle-Copy-82" fill="#2678C3" x="127.4" y="49" width="10" height="10"></rect>
            <rect id="Rectangle-Copy-91" fill="#2678C3" x="137.2" y="49" width="10" height="10"></rect>
            <rect id="Rectangle-Copy-166" fill="#2678C3" x="127.4" y="117.6" width="10" height="10"></rect>
            <rect id="Rectangle-Copy-647" fill="#2678C3" x="137.2" y="117.6" width="10" height="10"></rect>
            <rect id="Rectangle" stroke="#000000" x="-0.5" y="-0.5" width="148" height="148"></rect>
        </g>
    </g>
</svg>