<?xml version="1.0" encoding="UTF-8"?>
<svg width="149px" height="149px" viewBox="0 0 149 149" version="1.1" xmlns="http://www.w3.org/2000/svg" xmlns:xlink="http://www.w3.org/1999/xlink">
    <title>Houses of the Holy</title>
    <g id="Page-1" stroke="none" stroke-width="1" fill="none" fill-rule="evenodd">
        <g id="Houses-of-the-Holy" transform="translate(1.000000, 1.000000)">
            <rect id="Rectangle-Copy-167" fill="#D2E7EC" x="0" y="127.4" width="10" height="10"></rect>
            <rect id="Rectangle-Copy-83" fill="#91718F" x="0" y="58.8" width="10" height="10"></rect>
            <rect id="Rectangle-Copy-13" fill="#F5BFA7" x="0" y="9.8" width="10" height="10"></rect>
            <rect id="Rectangle-Copy-169" fill="#486F58" x="0" y="137.2" width="10" height="10"></rect>
            <rect id="Rectangle-Copy-84" fill="#486F58" x="0" y="68.6" width="10" height="10"></rect>
            <rect id="Rectangle-Copy-186" fill="#D2D2D2" x="19.6" y="68.6" width="10" height="10"></rect>
            <rect id="Rectangle-Copy-27" fill="#FFFFFF" x="0" y="19.6" width="10" height="10"></rect>
            <rect id="Rectangle-Copy-171" fill="#DE4429" x="0" y="0" width="10" height="10"></rect>
            <rect id="Rectangle-Copy-85" fill="#E8844A" x="0" y="78.4" width="10" height="10"></rect>
            <rect id="Rectangle-Copy-172" fill="#486F58" x="0" y="88.2" width="10" height="10"></rect>
            <rect id="Rectangle-Copy-41" fill="#405A4F" x="0" y="29.4" width="10" height="10"></rect>
            <rect id="Rectangle-Copy-86" fill="#91718F" x="0" y="98" width="10" height="10"></rect>
            <rect id="Rectangle-Copy-55" fill="#486F58" x="0" y="39.2" width="10" height="10"></rect>
            <rect id="Rectangle-Copy-87" fill="#E26B26" x="0" y="107.8" width="10" height="10"></rect>
            <rect id="Rectangle-Copy-69" fill="#A0C6AF" x="0" y="49" width="10" height="10"></rect>
            <rect id="Rectangle-Copy-88" fill="#486F58" x="0" y="117.6" width="10" height="10"></rect>
            <rect id="Rectangle-Copy-179" fill="#486F58" x="68.6" y="127.4" width="10" height="10"></rect>
            <rect id="Rectangle-Copy-14" fill="#E26B26" x="68.6" y="9.8" width="10" height="10"></rect>
            <rect id="Rectangle-Copy-181" fill="#A0C6AF" x="68.6" y="137.2" width="10" height="10"></rect>
            <rect id="Rectangle-Copy-90" fill="#ECECEC" x="58.8" y="68.6" width="10" height="10"></rect>
            <rect id="Rectangle-Copy-107" fill="#F7D48A" x="9.8" y="58.8" width="10" height="10"></rect>
            <rect id="Rectangle-Copy-108" fill="#E4D6D8" x="9.8" y="68.6" width="10" height="10"></rect>
            <rect id="Rectangle-Copy-109" fill="#E4D6D8" x="9.8" y="78.4" width="10" height="10"></rect>
            <rect id="Rectangle-Copy-119" fill="#A0C6AF" x="19.6" y="58.8" width="10" height="10"></rect>
            <rect id="Rectangle-Copy-121" fill="#D2E7EC" x="19.6" y="78.4" width="10" height="10"></rect>
            <rect id="Rectangle-Copy-132" fill="#AFADAC" x="29.4" y="68.6" width="10" height="10"></rect>
            <rect id="Rectangle-Copy-144" fill="#AFADAC" x="39.2" y="68.6" width="10" height="10"></rect>
            <rect id="Rectangle-Copy-155" fill="#AFADAC" x="49" y="58.8" width="10" height="10"></rect>
            <rect id="Rectangle-Copy-156" fill="#F7D48A" x="49" y="68.6" width="10" height="10"></rect>
            <rect id="Rectangle-Copy-28" fill="#E8844A" x="68.6" y="19.6" width="10" height="10"></rect>
            <rect id="Rectangle-Copy-214" fill="#AFADAC" x="58.8" y="58.8" width="10" height="10"></rect>
            <rect id="Rectangle-Copy-183" fill="#DE4429" x="68.6" y="0" width="10" height="10"></rect>
            <rect id="Rectangle-Copy-184" fill="#E4D6D8" x="68.6" y="88.2" width="10" height="10"></rect>
            <rect id="Rectangle-Copy-42" fill="#F5BFA7" x="68.6" y="29.4" width="10" height="10"></rect>
            <rect id="Rectangle-Copy-92" fill="#E4D6D8" x="68.6" y="98" width="10" height="10"></rect>
            <rect id="Rectangle-Copy-56" fill="#F5BFA7" x="68.6" y="39.2" width="10" height="10"></rect>
            <rect id="Rectangle-Copy-93" fill="#E8844A" x="68.6" y="107.8" width="10" height="10"></rect>
            <rect id="Rectangle-Copy-70" fill="#486F58" x="68.6" y="49" width="10" height="10"></rect>
            <rect id="Rectangle-Copy-94" fill="#313131" x="68.6" y="117.6" width="10" height="10"></rect>
            <rect id="Rectangle-Copy-191" fill="#D2E7EC" x="9.8" y="127.4" width="10" height="10"></rect>
            <rect id="Rectangle-Copy-15" fill="#F5BFA7" x="9.8" y="9.8" width="10" height="10"></rect>
            <rect id="Rectangle-Copy-193" fill="#486F58" x="9.8" y="137.2" width="10" height="10"></rect>
            <rect id="Rectangle-Copy-29" fill="#FFFFFF" x="9.8" y="19.6" width="10" height="10"></rect>
            <rect id="Rectangle-Copy-195" fill="#DE4429" x="9.8" y="0" width="10" height="10"></rect>
            <rect id="Rectangle-Copy-196" fill="#D2E7EC" x="9.8" y="88.2" width="10" height="10"></rect>
            <rect id="Rectangle-Copy-43" fill="#405A4F" x="9.8" y="29.4" width="10" height="10"></rect>
            <rect id="Rectangle-Copy-98" fill="#E26B26" x="9.8" y="98" width="10" height="10"></rect>
            <rect id="Rectangle-Copy-57" fill="#E26B26" x="9.8" y="39.2" width="10" height="10"></rect>
            <rect id="Rectangle-Copy-99" fill="#D2E7EC" x="9.8" y="107.8" width="10" height="10"></rect>
            <rect id="Rectangle-Copy-71" fill="#486F58" x="9.8" y="49" width="10" height="10"></rect>
            <rect id="Rectangle-Copy-100" fill="#F6C55B" x="9.8" y="117.6" width="10" height="10"></rect>
            <rect id="Rectangle-Copy-203" fill="#486F58" x="78.4" y="127.4" width="10" height="10"></rect>
            <rect id="Rectangle-Copy-16" fill="#E26B26" x="78.4" y="9.8" width="10" height="10"></rect>
            <rect id="Rectangle-Copy-205" fill="#D2E7EC" x="78.4" y="137.2" width="10" height="10"></rect>
            <rect id="Rectangle-Copy-30" fill="#E26B26" x="78.4" y="19.6" width="10" height="10"></rect>
            <rect id="Rectangle-Copy-222" fill="#486F58" x="68.6" y="58.8" width="10" height="10"></rect>
            <rect id="Rectangle-Copy-207" fill="#DE4429" x="78.4" y="0" width="10" height="10"></rect>
            <rect id="Rectangle-Copy-208" fill="#A0C6AF" x="78.4" y="88.2" width="10" height="10"></rect>
            <rect id="Rectangle-Copy-44" fill="#E8844A" x="78.4" y="29.4" width="10" height="10"></rect>
            <rect id="Rectangle-Copy-224" fill="#E8844A" x="68.6" y="68.6" width="10" height="10"></rect>
            <rect id="Rectangle-Copy-104" fill="#E4D6D8" x="78.4" y="98" width="10" height="10"></rect>
            <rect id="Rectangle-Copy-58" fill="#F5BFA7" x="78.4" y="39.2" width="10" height="10"></rect>
            <rect id="Rectangle-Copy-105" fill="#E8844A" x="78.4" y="107.8" width="10" height="10"></rect>
            <rect id="Rectangle-Copy-72" fill="#E26B26" x="78.4" y="49" width="10" height="10"></rect>
            <rect id="Rectangle-Copy-106" fill="#486F58" x="78.4" y="117.6" width="10" height="10"></rect>
            <rect id="Rectangle-Copy-215" fill="#E8844A" x="19.6" y="127.4" width="10" height="10"></rect>
            <rect id="Rectangle-Copy-17" fill="#F5BFA7" x="19.6" y="9.8" width="10" height="10"></rect>
            <rect id="Rectangle-Copy-217" fill="#486F58" x="19.6" y="137.2" width="10" height="10"></rect>
            <rect id="Rectangle-Copy-31" fill="#FFFFFF" x="19.6" y="19.6" width="10" height="10"></rect>
            <rect id="Rectangle-Copy-219" fill="#DE4429" x="19.6" y="0" width="10" height="10"></rect>
            <rect id="Rectangle-Copy-220" fill="#91718F" x="19.6" y="88.2" width="10" height="10"></rect>
            <rect id="Rectangle-Copy-45" fill="#FFFFFF" x="19.6" y="29.4" width="10" height="10"></rect>
            <rect id="Rectangle-Copy-110" fill="#D2E7EC" x="19.6" y="98" width="10" height="10"></rect>
            <rect id="Rectangle-Copy-59" fill="#486F58" x="19.6" y="39.2" width="10" height="10"></rect>
            <rect id="Rectangle-Copy-111" fill="#E26B26" x="19.6" y="107.8" width="10" height="10"></rect>
            <rect id="Rectangle-Copy-73" fill="#486F58" x="19.6" y="49" width="10" height="10"></rect>
            <rect id="Rectangle-Copy-112" fill="#F6C55B" x="19.6" y="117.6" width="10" height="10"></rect>
            <rect id="Rectangle-Copy-227" fill="#486F58" x="88.2" y="127.4" width="10" height="10"></rect>
            <rect id="Rectangle-Copy-113" fill="#A0C6AF" x="78.4" y="58.8" width="10" height="10"></rect>
            <rect id="Rectangle-Copy-18" fill="#DE5B2A" x="88.2" y="9.8" width="10" height="10"></rect>
            <rect id="Rectangle-Copy-229" fill="#D2E7EC" x="88.2" y="137.2" width="10" height="10"></rect>
            <rect id="Rectangle-Copy-114" fill="#E8844A" x="78.4" y="68.6" width="10" height="10"></rect>
            <rect id="Rectangle-Copy-32" fill="#E26B26" x="88.2" y="19.6" width="10" height="10"></rect>
            <rect id="Rectangle-Copy-231" fill="#DE4429" x="88.2" y="0" width="10" height="10"></rect>
            <rect id="Rectangle-Copy-115" fill="#A0C6AF" x="78.4" y="78.4" width="10" height="10"></rect>
            <rect id="Rectangle-Copy-232" fill="#A0C6AF" x="88.2" y="88.2" width="10" height="10"></rect>
            <rect id="Rectangle-Copy-116" fill="#E4D6D8" x="88.2" y="98" width="10" height="10"></rect>
            <rect id="Rectangle-Copy-117" fill="#E8844A" x="88.2" y="107.8" width="10" height="10"></rect>
            <rect id="Rectangle-Copy-74" fill="#F5BFA7" x="88.2" y="49" width="10" height="10"></rect>
            <rect id="Rectangle-Copy-118" fill="#486F58" x="88.2" y="117.6" width="10" height="10"></rect>
            <rect id="Rectangle-Copy-239" fill="#A0C6AF" x="39.2" y="127.4" width="10" height="10"></rect>
            <rect id="Rectangle-Copy-19" fill="#F5BFA7" x="29.4" y="9.8" width="10" height="10"></rect>
            <rect id="Rectangle-Copy-241" fill="#D2E7EC" x="29.4" y="137.2" width="10" height="10"></rect>
            <rect id="Rectangle-Copy-33" fill="#F5BFA7" x="29.4" y="19.6" width="10" height="10"></rect>
            <rect id="Rectangle-Copy-243" fill="#DE4429" x="29.4" y="0" width="10" height="10"></rect>
            <rect id="Rectangle-Copy-244" fill="#91718F" x="29.4" y="88.2" width="10" height="10"></rect>
            <rect id="Rectangle-Copy-47" fill="#FFFFFF" x="29.4" y="29.4" width="10" height="10"></rect>
            <rect id="Rectangle-Copy-122" fill="#D2E7EC" x="29.4" y="98" width="10" height="10"></rect>
            <rect id="Rectangle-Copy-61" fill="#486F58" x="29.4" y="39.2" width="10" height="10"></rect>
            <rect id="Rectangle-Copy-123" fill="#405A4F" x="29.4" y="107.8" width="10" height="10"></rect>
            <rect id="Rectangle-Copy-75" fill="#E26B26" x="29.4" y="49" width="10" height="10"></rect>
            <rect id="Rectangle-Copy-188" fill="#91718F" x="29.4" y="58.8" width="10" height="10"></rect>
            <rect id="Rectangle-Copy-198" fill="#A0C6AF" x="29.4" y="78.4" width="10" height="10"></rect>
            <rect id="Rectangle-Copy-202" fill="#E4D6D8" x="58.8" y="78.4" width="10" height="10"></rect>
            <rect id="Rectangle-Copy-238" fill="#D2E7EC" x="58.8" y="88.2" width="10" height="10"></rect>
            <rect id="Rectangle-Copy-212" fill="#E4D6D8" x="68.6" y="78.4" width="10" height="10"></rect>
            <rect id="Rectangle-Copy-124" fill="#E8844A" x="29.4" y="117.6" width="10" height="10"></rect>
            <rect id="Rectangle-Copy-251" fill="#91718F" x="98" y="127.4" width="10" height="10"></rect>
            <rect id="Rectangle-Copy-125" fill="#486F58" x="88.2" y="58.8" width="10" height="10"></rect>
            <rect id="Rectangle-Copy-20" fill="#DE4429" x="98" y="9.8" width="10" height="10"></rect>
            <rect id="Rectangle-Copy-253" fill="#D2E7EC" x="98" y="137.2" width="10" height="10"></rect>
            <rect id="Rectangle-Copy-126" fill="#E8844A" x="88.2" y="68.6" width="10" height="10"></rect>
            <rect id="Rectangle-Copy-255" fill="#DE4429" x="98" y="0" width="10" height="10"></rect>
            <rect id="Rectangle-Copy-127" fill="#A0C6AF" x="88.2" y="78.4" width="10" height="10"></rect>
            <rect id="Rectangle-Copy-256" fill="#F7D48A" x="98" y="88.2" width="10" height="10"></rect>
            <rect id="Rectangle-Copy-48" fill="#E26B26" x="88.2" y="29.4" width="10" height="10"></rect>
            <rect id="Rectangle-Copy-128" fill="#E4D6D8" x="98" y="98" width="10" height="10"></rect>
            <rect id="Rectangle-Copy-62" fill="#E8844A" x="88.2" y="39.2" width="10" height="10"></rect>
            <rect id="Rectangle-Copy-129" fill="#D2E7EC" x="98" y="107.8" width="10" height="10"></rect>
            <rect id="Rectangle-Copy-76" fill="#F5BFA7" x="98" y="49" width="10" height="10"></rect>
            <rect id="Rectangle-Copy-130" fill="#E4D6D8" x="98" y="117.6" width="10" height="10"></rect>
            <rect id="Rectangle-Copy-263" fill="#E8844A" x="29.4" y="127.4" width="10" height="10"></rect>
            <rect id="Rectangle-Copy-21" fill="#E8844A" x="39.2" y="9.8" width="10" height="10"></rect>
            <rect id="Rectangle-Copy-265" fill="#D2E7EC" x="39.2" y="137.2" width="10" height="10"></rect>
            <rect id="Rectangle-Copy-35" fill="#F5BFA7" x="39.2" y="19.6" width="10" height="10"></rect>
            <rect id="Rectangle-Copy-267" fill="#DE4429" x="39.2" y="0" width="10" height="10"></rect>
            <rect id="Rectangle-Copy-268" fill="#A0C6AF" x="39.2" y="88.2" width="10" height="10"></rect>
            <rect id="Rectangle-Copy-49" fill="#FFFFFF" x="39.2" y="29.4" width="10" height="10"></rect>
            <rect id="Rectangle-Copy-134" fill="#405A4F" x="39.2" y="98" width="10" height="10"></rect>
            <rect id="Rectangle-Copy-63" fill="#A0C6AF" x="39.2" y="39.2" width="10" height="10"></rect>
            <rect id="Rectangle-Copy-135" fill="#405A4F" x="39.2" y="107.8" width="10" height="10"></rect>
            <rect id="Rectangle-Copy-77" fill="#486F58" x="39.2" y="49" width="10" height="10"></rect>
            <rect id="Rectangle-Copy-190" fill="#AFADAC" x="39.2" y="58.8" width="10" height="10"></rect>
            <rect id="Rectangle-Copy-200" fill="#D2E7EC" x="39.2" y="78.4" width="10" height="10"></rect>
            <rect id="Rectangle-Copy-210" fill="#E4D6D8" x="49" y="78.4" width="10" height="10"></rect>
            <rect id="Rectangle-Copy-136" fill="#405A4F" x="39.2" y="117.6" width="10" height="10"></rect>
            <rect id="Rectangle-Copy-275" fill="#91718F" x="107.8" y="127.4" width="10" height="10"></rect>
            <rect id="Rectangle-Copy-137" fill="#A0C6AF" x="98" y="58.8" width="10" height="10"></rect>
            <rect id="Rectangle-Copy-22" fill="#DE4429" x="107.8" y="9.8" width="10" height="10"></rect>
            <rect id="Rectangle-Copy-277" fill="#D2E7EC" x="107.8" y="137.2" width="10" height="10"></rect>
            <rect id="Rectangle-Copy-138" fill="#F6C55B" x="98" y="68.6" width="10" height="10"></rect>
            <rect id="Rectangle-Copy-36" fill="#DE5B2A" x="98" y="19.6" width="10" height="10"></rect>
            <rect id="Rectangle-Copy-279" fill="#DE4429" x="107.8" y="0" width="10" height="10"></rect>
            <rect id="Rectangle-Copy-139" fill="#F7D48A" x="98" y="78.4" width="10" height="10"></rect>
            <rect id="Rectangle-Copy-280" fill="#F7D48A" x="107.8" y="88.2" width="10" height="10"></rect>
            <rect id="Rectangle-Copy-50" fill="#DE4429" x="107.8" y="19.6" width="10" height="10"></rect>
            <rect id="Rectangle-Copy-234" fill="#DE4429" x="107.8" y="29.4" width="10" height="10"></rect>
            <rect id="Rectangle-Copy-236" fill="#E26B26" x="98" y="39.2" width="10" height="10"></rect>
            <rect id="Rectangle-Copy-140" fill="#E4D6D8" x="107.8" y="98" width="10" height="10"></rect>
            <rect id="Rectangle-Copy-64" fill="#DE5B2A" x="98" y="29.4" width="10" height="10"></rect>
            <rect id="Rectangle-Copy-226" fill="#DE5B2A" x="107.8" y="39.2" width="10" height="10"></rect>
            <rect id="Rectangle-Copy-141" fill="#E4D6D8" x="107.8" y="107.8" width="10" height="10"></rect>
            <rect id="Rectangle-Copy-78" fill="#E26B26" x="107.8" y="49" width="10" height="10"></rect>
            <rect id="Rectangle-Copy-142" fill="#F6C55B" x="107.8" y="117.6" width="10" height="10"></rect>
            <rect id="Rectangle-Copy-287" fill="#405A4F" x="49" y="127.4" width="10" height="10"></rect>
            <rect id="Rectangle-Copy-23" fill="#E8844A" x="49" y="9.8" width="10" height="10"></rect>
            <rect id="Rectangle-Copy-289" fill="#A0C6AF" x="49" y="137.2" width="10" height="10"></rect>
            <rect id="Rectangle-Copy-37" fill="#F5BFA7" x="49" y="19.6" width="10" height="10"></rect>
            <rect id="Rectangle-Copy-291" fill="#DE4429" x="49" y="0" width="10" height="10"></rect>
            <rect id="Rectangle-Copy-292" fill="#E4D6D8" x="49" y="88.2" width="10" height="10"></rect>
            <rect id="Rectangle-Copy-51" fill="#F5BFA7" x="49" y="29.4" width="10" height="10"></rect>
            <rect id="Rectangle-Copy-146" fill="#405A4F" x="49" y="98" width="10" height="10"></rect>
            <rect id="Rectangle-Copy-65" fill="#486F58" x="49" y="39.2" width="10" height="10"></rect>
            <rect id="Rectangle-Copy-147" fill="#A0C6AF" x="49" y="117.6" width="10" height="10"></rect>
            <rect id="Rectangle-Copy-79" fill="#E26B26" x="49" y="49" width="10" height="10"></rect>
            <rect id="Rectangle-Copy-148" fill="#405A4F" x="49" y="107.8" width="10" height="10"></rect>
            <rect id="Rectangle-Copy-299" fill="#D2E7EC" x="117.6" y="127.4" width="10" height="10"></rect>
            <rect id="Rectangle-Copy-149" fill="#A0C6AF" x="117.6" y="58.8" width="10" height="10"></rect>
            <rect id="Rectangle-Copy-178" fill="#A0C6AF" x="107.8" y="58.8" width="10" height="10"></rect>
            <rect id="Rectangle-Copy-24" fill="#DE4429" x="117.6" y="9.8" width="10" height="10"></rect>
            <rect id="Rectangle-Copy-301" fill="#D2E7EC" x="117.6" y="137.2" width="10" height="10"></rect>
            <rect id="Rectangle-Copy-150" fill="#F6C55B" x="117.6" y="68.6" width="10" height="10"></rect>
            <rect id="Rectangle-Copy-174" fill="#E8844A" x="107.8" y="68.6" width="10" height="10"></rect>
            <rect id="Rectangle-Copy-176" fill="#F7D48A" x="107.8" y="78.4" width="10" height="10"></rect>
            <rect id="Rectangle-Copy-38" fill="#DE4429" x="117.6" y="19.6" width="10" height="10"></rect>
            <rect id="Rectangle-Copy-303" fill="#DE4429" x="117.6" y="0" width="10" height="10"></rect>
            <rect id="Rectangle-Copy-151" fill="#F5BFA7" x="117.6" y="78.4" width="10" height="10"></rect>
            <rect id="Rectangle-Copy-304" fill="#A0C6AF" x="117.6" y="88.2" width="10" height="10"></rect>
            <rect id="Rectangle-Copy-52" fill="#DE4429" x="117.6" y="29.4" width="10" height="10"></rect>
            <rect id="Rectangle-Copy-152" fill="#E4D6D8" x="117.6" y="98" width="10" height="10"></rect>
            <rect id="Rectangle-Copy-66" fill="#DE5B2A" x="117.6" y="39.2" width="10" height="10"></rect>
            <rect id="Rectangle-Copy-153" fill="#E4D6D8" x="117.6" y="107.8" width="10" height="10"></rect>
            <rect id="Rectangle-Copy-80" fill="#E26B26" x="117.6" y="49" width="10" height="10"></rect>
            <rect id="Rectangle-Copy-154" fill="#E4D6D8" x="117.6" y="117.6" width="10" height="10"></rect>
            <rect id="Rectangle-Copy-311" fill="#486F58" x="58.8" y="127.4" width="10" height="10"></rect>
            <rect id="Rectangle-Copy-25" fill="#E8844A" x="58.8" y="9.8" width="10" height="10"></rect>
            <rect id="Rectangle-Copy-313" fill="#A0C6AF" x="58.8" y="137.2" width="10" height="10"></rect>
            <rect id="Rectangle-Copy-39" fill="#F5BFA7" x="58.8" y="19.6" width="10" height="10"></rect>
            <rect id="Rectangle-Copy-315" fill="#DE4429" x="58.8" y="0" width="10" height="10"></rect>
            <rect id="Rectangle-Copy-53" fill="#F5BFA7" x="58.8" y="29.4" width="10" height="10"></rect>
            <rect id="Rectangle-Copy-158" fill="#405A4F" x="58.8" y="107.8" width="10" height="10"></rect>
            <rect id="Rectangle-Copy-67" fill="#486F58" x="58.8" y="39.2" width="10" height="10"></rect>
            <rect id="Rectangle-Copy-159" fill="#A0C6AF" x="58.8" y="98" width="10" height="10"></rect>
            <rect id="Rectangle-Copy-81" fill="#486F58" x="58.8" y="49" width="10" height="10"></rect>
            <rect id="Rectangle-Copy-160" fill="#313131" x="58.8" y="117.6" width="10" height="10"></rect>
            <rect id="Rectangle-Copy-323" fill="#E4D6D8" x="127.4" y="127.4" width="10" height="10"></rect>
            <rect id="Rectangle-Copy-633" fill="#E4D6D8" x="137.2" y="127.4" width="10" height="10"></rect>
            <rect id="Rectangle-Copy-161" fill="#E26B26" x="127.4" y="58.8" width="10" height="10"></rect>
            <rect id="Rectangle-Copy-316" fill="#A0C6AF" x="137.2" y="58.8" width="10" height="10"></rect>
            <rect id="Rectangle-Copy-26" fill="#DE4429" x="127.4" y="9.8" width="10" height="10"></rect>
            <rect id="Rectangle-Copy-34" fill="#DE4429" x="137.2" y="9.8" width="10" height="10"></rect>
            <rect id="Rectangle-Copy-325" fill="#F6C55B" x="127.4" y="137.2" width="10" height="10"></rect>
            <rect id="Rectangle-Copy-636" fill="#F6C55B" x="137.2" y="137.2" width="10" height="10"></rect>
            <rect id="Rectangle-Copy-162" fill="#A0C6AF" x="127.4" y="68.6" width="10" height="10"></rect>
            <rect id="Rectangle-Copy-637" fill="#E8844A" x="137.2" y="68.6" width="10" height="10"></rect>
            <rect id="Rectangle-Copy-40" fill="#DE4429" x="127.4" y="19.6" width="10" height="10"></rect>
            <rect id="Rectangle-Copy-46" fill="#DE4429" x="137.2" y="19.6" width="10" height="10"></rect>
            <rect id="Rectangle-Copy-327" fill="#DE4429" x="127.4" y="0" width="10" height="10"></rect>
            <rect id="Rectangle-Copy-639" fill="#DE4429" x="137.2" y="0" width="10" height="10"></rect>
            <rect id="Rectangle-Copy-163" fill="#D2E7EC" x="127.4" y="78.4" width="10" height="10"></rect>
            <rect id="Rectangle-Copy-640" fill="#E26B26" x="137.2" y="78.4" width="10" height="10"></rect>
            <rect id="Rectangle-Copy-328" fill="#E26B26" x="127.4" y="88.2" width="10" height="10"></rect>
            <rect id="Rectangle-Copy-641" fill="#F5BFA7" x="137.2" y="88.2" width="10" height="10"></rect>
            <rect id="Rectangle-Copy-54" fill="#DE4429" x="127.4" y="29.4" width="10" height="10"></rect>
            <rect id="Rectangle-Copy-60" fill="#DE4429" x="137.2" y="29.4" width="10" height="10"></rect>
            <rect id="Rectangle-Copy-164" fill="#486F58" x="127.4" y="98" width="10" height="10"></rect>
            <rect id="Rectangle-Copy-643" fill="#E26B26" x="137.2" y="98" width="10" height="10"></rect>
            <rect id="Rectangle-Copy-68" fill="#DE4429" x="127.4" y="39.2" width="10" height="10"></rect>
            <rect id="Rectangle-Copy-89" fill="#DE4429" x="137.2" y="39.2" width="10" height="10"></rect>
            <rect id="Rectangle-Copy-165" fill="#E4D6D8" x="127.4" y="107.8" width="10" height="10"></rect>
            <rect id="Rectangle-Copy-645" fill="#486F58" x="137.2" y="107.8" width="10" height="10"></rect>
            <rect id="Rectangle-Copy-82" fill="#DE4429" x="127.4" y="49" width="10" height="10"></rect>
            <rect id="Rectangle-Copy-91" fill="#DE4429" x="137.2" y="49" width="10" height="10"></rect>
            <rect id="Rectangle-Copy-166" fill="#E4D6D8" x="127.4" y="117.6" width="10" height="10"></rect>
            <rect id="Rectangle-Copy-647" fill="#E4D6D8" x="137.2" y="117.6" width="10" height="10"></rect>
            <rect id="Rectangle-Copy-2" stroke="#000000" x="-0.5" y="-0.5" width="148" height="148"></rect>
        </g>
    </g>
</svg>