<?xml version="1.0" encoding="UTF-8"?>
<svg width="149px" height="149px" viewBox="0 0 149 149" version="1.1" xmlns="http://www.w3.org/2000/svg" xmlns:xlink="http://www.w3.org/1999/xlink">
    <title>Lied</title>
    <g id="Page-1" stroke="none" stroke-width="1" fill="none" fill-rule="evenodd">
        <g id="vvm" transform="translate(-9.000000, -9.000000)">
            <g id="Lied" transform="translate(10.000000, 10.000000)">
                <rect id="Rectangle-Copy-167" fill="#CDE7E4" x="0" y="127.4" width="10" height="10"></rect>
                <rect id="Rectangle-Copy-83" fill="#CDE7E4" x="0" y="58.8" width="10" height="10"></rect>
                <rect id="Rectangle-Copy-13" fill="#CDE7E4" x="0" y="9.8" width="10" height="10"></rect>
                <rect id="Rectangle-Copy-169" fill="#BFD7D5" x="0" y="137.2" width="10" height="10"></rect>
                <rect id="Rectangle-Copy-84" fill="#CDE7E4" x="0" y="68.6" width="10" height="10"></rect>
                <rect id="Rectangle-Copy-186" fill="#0A0F0F" x="19.6" y="68.6" width="10" height="10"></rect>
                <rect id="Rectangle-Copy-27" fill="#CDE7E4" x="0" y="19.6" width="10" height="10"></rect>
                <rect id="Rectangle-Copy-171" fill="#CDE7E4" x="0" y="0" width="10" height="10"></rect>
                <rect id="Rectangle-Copy-85" fill="#CDE7E4" x="0" y="78.4" width="10" height="10"></rect>
                <rect id="Rectangle-Copy-172" fill="#CDE7E4" x="0" y="88.2" width="10" height="10"></rect>
                <rect id="Rectangle-Copy-41" fill="#CDE7E4" x="0" y="29.4" width="10" height="10"></rect>
                <rect id="Rectangle-Copy-86" fill="#CDE7E4" x="0" y="98" width="10" height="10"></rect>
                <rect id="Rectangle-Copy-55" fill="#CDE7E4" x="0" y="39.2" width="10" height="10"></rect>
                <rect id="Rectangle-Copy-87" fill="#CDE7E4" x="0" y="107.8" width="10" height="10"></rect>
                <rect id="Rectangle-Copy-69" fill="#CDE7E4" x="0" y="49" width="10" height="10"></rect>
                <rect id="Rectangle-Copy-88" fill="#CDE7E4" x="0" y="117.6" width="10" height="10"></rect>
                <rect id="Rectangle-Copy-179" fill="#895736" x="68.6" y="127.4" width="10" height="10"></rect>
                <rect id="Rectangle-Copy-14" fill="#CDE7E4" x="68.6" y="9.8" width="10" height="10"></rect>
                <rect id="Rectangle-Copy-181" fill="#69665C" x="68.6" y="137.2" width="10" height="10"></rect>
                <rect id="Rectangle-Copy-90" fill="#93714E" x="58.8" y="68.6" width="10" height="10"></rect>
                <rect id="Rectangle-Copy-107" fill="#9DAFAE" x="9.8" y="58.8" width="10" height="10"></rect>
                <rect id="Rectangle-Copy-108" fill="#B8CFCC" x="9.8" y="68.6" width="10" height="10"></rect>
                <rect id="Rectangle-Copy-109" fill="#CDE7E4" x="9.8" y="78.4" width="10" height="10"></rect>
                <rect id="Rectangle-Copy-119" fill="#0A0F0F" x="19.6" y="58.8" width="10" height="10"></rect>
                <rect id="Rectangle-Copy-121" fill="#0A0F0F" x="19.6" y="78.4" width="10" height="10"></rect>
                <rect id="Rectangle-Copy-132" fill="#0A0F0F" x="29.4" y="68.6" width="10" height="10"></rect>
                <rect id="Rectangle-Copy-144" fill="#0A0F0F" x="39.2" y="68.6" width="10" height="10"></rect>
                <rect id="Rectangle-Copy-155" fill="#0A0F0F" x="49" y="58.8" width="10" height="10"></rect>
                <rect id="Rectangle-Copy-156" fill="#604F3A" x="49" y="68.6" width="10" height="10"></rect>
                <rect id="Rectangle-Copy-28" fill="#A0CDC0" x="68.6" y="19.6" width="10" height="10"></rect>
                <rect id="Rectangle-Copy-214" fill="#433021" x="58.8" y="58.8" width="10" height="10"></rect>
                <rect id="Rectangle-Copy-183" fill="#CDE7E4" x="68.6" y="0" width="10" height="10"></rect>
                <rect id="Rectangle-Copy-184" fill="#AE613A" x="68.6" y="88.2" width="10" height="10"></rect>
                <rect id="Rectangle-Copy-42" fill="#414B4A" x="68.6" y="29.4" width="10" height="10"></rect>
                <rect id="Rectangle-Copy-92" fill="#AE613A" x="68.6" y="98" width="10" height="10"></rect>
                <rect id="Rectangle-Copy-56" fill="#0A0F0F" x="68.6" y="39.2" width="10" height="10"></rect>
                <rect id="Rectangle-Copy-93" fill="#433021" x="68.6" y="107.8" width="10" height="10"></rect>
                <rect id="Rectangle-Copy-70" fill="#414B4A" x="68.6" y="49" width="10" height="10"></rect>
                <rect id="Rectangle-Copy-94" fill="#895736" x="68.6" y="117.6" width="10" height="10"></rect>
                <rect id="Rectangle-Copy-191" fill="#BFD7D5" x="9.8" y="127.4" width="10" height="10"></rect>
                <rect id="Rectangle-Copy-15" fill="#A62E35" x="9.8" y="9.8" width="10" height="10"></rect>
                <rect id="Rectangle-Copy-193" fill="#BFD7D5" x="9.8" y="137.2" width="10" height="10"></rect>
                <rect id="Rectangle-Copy-29" fill="#A65A58" x="9.8" y="19.6" width="10" height="10"></rect>
                <rect id="Rectangle-Copy-195" fill="#CDE7E4" x="9.8" y="0" width="10" height="10"></rect>
                <rect id="Rectangle-Copy-196" fill="#CDE7E4" x="9.8" y="88.2" width="10" height="10"></rect>
                <rect id="Rectangle-Copy-43" fill="#A65A58" x="9.8" y="29.4" width="10" height="10"></rect>
                <rect id="Rectangle-Copy-98" fill="#CDE7E4" x="9.8" y="98" width="10" height="10"></rect>
                <rect id="Rectangle-Copy-57" fill="#414B4A" x="9.8" y="39.2" width="10" height="10"></rect>
                <rect id="Rectangle-Copy-99" fill="#CDE7E4" x="9.8" y="107.8" width="10" height="10"></rect>
                <rect id="Rectangle-Copy-71" fill="#616B6A" x="9.8" y="49" width="10" height="10"></rect>
                <rect id="Rectangle-Copy-100" fill="#CDE7E4" x="9.8" y="117.6" width="10" height="10"></rect>
                <rect id="Rectangle-Copy-203" fill="#5D4433" x="78.4" y="127.4" width="10" height="10"></rect>
                <rect id="Rectangle-Copy-16" fill="#CDE7E4" x="78.4" y="9.8" width="10" height="10"></rect>
                <rect id="Rectangle-Copy-205" fill="#798D8B" x="78.4" y="137.2" width="10" height="10"></rect>
                <rect id="Rectangle-Copy-30" fill="#A0CDC0" x="78.4" y="19.6" width="10" height="10"></rect>
                <rect id="Rectangle-Copy-222" fill="#93714E" x="68.6" y="58.8" width="10" height="10"></rect>
                <rect id="Rectangle-Copy-207" fill="#CDE7E4" x="78.4" y="0" width="10" height="10"></rect>
                <rect id="Rectangle-Copy-208" fill="#5D4433" x="78.4" y="88.2" width="10" height="10"></rect>
                <rect id="Rectangle-Copy-44" fill="#A0CDC0" x="78.4" y="29.4" width="10" height="10"></rect>
                <rect id="Rectangle-Copy-224" fill="#B46E42" x="68.6" y="68.6" width="10" height="10"></rect>
                <rect id="Rectangle-Copy-104" fill="#AE613A" x="78.4" y="98" width="10" height="10"></rect>
                <rect id="Rectangle-Copy-58" fill="#414B4A" x="78.4" y="39.2" width="10" height="10"></rect>
                <rect id="Rectangle-Copy-105" fill="#433021" x="78.4" y="107.8" width="10" height="10"></rect>
                <rect id="Rectangle-Copy-72" fill="#616B6A" x="78.4" y="49" width="10" height="10"></rect>
                <rect id="Rectangle-Copy-106" fill="#593D2A" x="78.4" y="117.6" width="10" height="10"></rect>
                <rect id="Rectangle-Copy-215" fill="#BFD7D5" x="19.6" y="127.4" width="10" height="10"></rect>
                <rect id="Rectangle-Copy-17" fill="#A62E35" x="19.6" y="9.8" width="10" height="10"></rect>
                <rect id="Rectangle-Copy-217" fill="#BFD7D5" x="19.6" y="137.2" width="10" height="10"></rect>
                <rect id="Rectangle-Copy-31" fill="#A62E35" x="19.6" y="19.6" width="10" height="10"></rect>
                <rect id="Rectangle-Copy-219" fill="#CDE7E4" x="19.6" y="0" width="10" height="10"></rect>
                <rect id="Rectangle-Copy-220" fill="#333B3C" x="19.6" y="88.2" width="10" height="10"></rect>
                <rect id="Rectangle-Copy-45" fill="#A62E35" x="19.6" y="29.4" width="10" height="10"></rect>
                <rect id="Rectangle-Copy-110" fill="#535F5E" x="19.6" y="98" width="10" height="10"></rect>
                <rect id="Rectangle-Copy-59" fill="#0A0F0F" x="19.6" y="39.2" width="10" height="10"></rect>
                <rect id="Rectangle-Copy-111" fill="#80918D" x="19.6" y="107.8" width="10" height="10"></rect>
                <rect id="Rectangle-Copy-73" fill="#0A0F0F" x="19.6" y="49" width="10" height="10"></rect>
                <rect id="Rectangle-Copy-112" fill="#A8BEBB" x="19.6" y="117.6" width="10" height="10"></rect>
                <rect id="Rectangle-Copy-227" fill="#7C6C5D" x="88.2" y="127.4" width="10" height="10"></rect>
                <rect id="Rectangle-Copy-113" fill="#7D8270" x="78.4" y="58.8" width="10" height="10"></rect>
                <rect id="Rectangle-Copy-18" fill="#CDE7E4" x="88.2" y="9.8" width="10" height="10"></rect>
                <rect id="Rectangle-Copy-229" fill="#8CACAB" x="88.2" y="137.2" width="10" height="10"></rect>
                <rect id="Rectangle-Copy-114" fill="#AE613A" x="78.4" y="68.6" width="10" height="10"></rect>
                <rect id="Rectangle-Copy-32" fill="#A0CDC0" x="88.2" y="19.6" width="10" height="10"></rect>
                <rect id="Rectangle-Copy-231" fill="#CDE7E4" x="88.2" y="0" width="10" height="10"></rect>
                <rect id="Rectangle-Copy-115" fill="#5A3728" x="78.4" y="78.4" width="10" height="10"></rect>
                <rect id="Rectangle-Copy-232" fill="#775236" x="88.2" y="88.2" width="10" height="10"></rect>
                <rect id="Rectangle-Copy-116" fill="#7C4C30" x="88.2" y="98" width="10" height="10"></rect>
                <rect id="Rectangle-Copy-117" fill="#7C4C30" x="88.2" y="107.8" width="10" height="10"></rect>
                <rect id="Rectangle-Copy-74" fill="#6E8E85" x="88.2" y="49" width="10" height="10"></rect>
                <rect id="Rectangle-Copy-118" fill="#473324" x="88.2" y="117.6" width="10" height="10"></rect>
                <rect id="Rectangle-Copy-239" fill="#654932" x="39.2" y="127.4" width="10" height="10"></rect>
                <rect id="Rectangle-Copy-19" fill="#A65A58" x="29.4" y="9.8" width="10" height="10"></rect>
                <rect id="Rectangle-Copy-241" fill="#5C4D3C" x="29.4" y="137.2" width="10" height="10"></rect>
                <rect id="Rectangle-Copy-33" fill="#A62E35" x="29.4" y="19.6" width="10" height="10"></rect>
                <rect id="Rectangle-Copy-243" fill="#CDE7E4" x="29.4" y="0" width="10" height="10"></rect>
                <rect id="Rectangle-Copy-244" fill="#795330" x="29.4" y="88.2" width="10" height="10"></rect>
                <rect id="Rectangle-Copy-47" fill="#4C2021" x="29.4" y="29.4" width="10" height="10"></rect>
                <rect id="Rectangle-Copy-122" fill="#0A0F0F" x="29.4" y="98" width="10" height="10"></rect>
                <rect id="Rectangle-Copy-61" fill="#0A0F0F" x="29.4" y="39.2" width="10" height="10"></rect>
                <rect id="Rectangle-Copy-123" fill="#0A0F0F" x="29.4" y="107.8" width="10" height="10"></rect>
                <rect id="Rectangle-Copy-75" fill="#0A0F0F" x="29.4" y="49" width="10" height="10"></rect>
                <rect id="Rectangle-Copy-188" fill="#0A0F0F" x="29.4" y="58.8" width="10" height="10"></rect>
                <rect id="Rectangle-Copy-198" fill="#0A0F0F" x="29.4" y="78.4" width="10" height="10"></rect>
                <rect id="Rectangle-Copy-202" fill="#B46E42" x="58.8" y="78.4" width="10" height="10"></rect>
                <rect id="Rectangle-Copy-238" fill="#B46E42" x="58.8" y="88.2" width="10" height="10"></rect>
                <rect id="Rectangle-Copy-212" fill="#B46E42" x="68.6" y="78.4" width="10" height="10"></rect>
                <rect id="Rectangle-Copy-124" fill="#513D2B" x="29.4" y="117.6" width="10" height="10"></rect>
                <rect id="Rectangle-Copy-251" fill="#89877A" x="98" y="127.4" width="10" height="10"></rect>
                <rect id="Rectangle-Copy-125" fill="#6E8E85" x="88.2" y="58.8" width="10" height="10"></rect>
                <rect id="Rectangle-Copy-20" fill="#A0CDC0" x="98" y="9.8" width="10" height="10"></rect>
                <rect id="Rectangle-Copy-253" fill="#8BADAD" x="98" y="137.2" width="10" height="10"></rect>
                <rect id="Rectangle-Copy-126" fill="#6E8E85" x="88.2" y="68.6" width="10" height="10"></rect>
                <rect id="Rectangle-Copy-255" fill="#CDE7E4" x="98" y="0" width="10" height="10"></rect>
                <rect id="Rectangle-Copy-127" fill="#775236" x="88.2" y="78.4" width="10" height="10"></rect>
                <rect id="Rectangle-Copy-256" fill="#6E8E85" x="98" y="88.2" width="10" height="10"></rect>
                <rect id="Rectangle-Copy-48" fill="#A0CDC0" x="88.2" y="29.4" width="10" height="10"></rect>
                <rect id="Rectangle-Copy-128" fill="#765A3F" x="98" y="98" width="10" height="10"></rect>
                <rect id="Rectangle-Copy-62" fill="#A0CDC0" x="88.2" y="39.2" width="10" height="10"></rect>
                <rect id="Rectangle-Copy-129" fill="#7D4E30" x="98" y="107.8" width="10" height="10"></rect>
                <rect id="Rectangle-Copy-76" fill="#759890" x="98" y="49" width="10" height="10"></rect>
                <rect id="Rectangle-Copy-130" fill="#7C6C5D" x="98" y="117.6" width="10" height="10"></rect>
                <rect id="Rectangle-Copy-263" fill="#5C4D3C" x="29.4" y="127.4" width="10" height="10"></rect>
                <rect id="Rectangle-Copy-21" fill="#CDE7E4" x="39.2" y="9.8" width="10" height="10"></rect>
                <rect id="Rectangle-Copy-265" fill="#3C3934" x="39.2" y="137.2" width="10" height="10"></rect>
                <rect id="Rectangle-Copy-35" fill="#414B4A" x="39.2" y="19.6" width="10" height="10"></rect>
                <rect id="Rectangle-Copy-267" fill="#CDE7E4" x="39.2" y="0" width="10" height="10"></rect>
                <rect id="Rectangle-Copy-268" fill="#B46E42" x="39.2" y="88.2" width="10" height="10"></rect>
                <rect id="Rectangle-Copy-49" fill="#0A0F0F" x="39.2" y="29.4" width="10" height="10"></rect>
                <rect id="Rectangle-Copy-134" fill="#795330" x="39.2" y="98" width="10" height="10"></rect>
                <rect id="Rectangle-Copy-63" fill="#0A0F0F" x="39.2" y="39.2" width="10" height="10"></rect>
                <rect id="Rectangle-Copy-135" fill="#795330" x="39.2" y="107.8" width="10" height="10"></rect>
                <rect id="Rectangle-Copy-77" fill="#0A0F0F" x="39.2" y="49" width="10" height="10"></rect>
                <rect id="Rectangle-Copy-190" fill="#0A0F0F" x="39.2" y="58.8" width="10" height="10"></rect>
                <rect id="Rectangle-Copy-200" fill="#B46E42" x="39.2" y="78.4" width="10" height="10"></rect>
                <rect id="Rectangle-Copy-210" fill="#B46E42" x="49" y="78.4" width="10" height="10"></rect>
                <rect id="Rectangle-Copy-136" fill="#654932" x="39.2" y="117.6" width="10" height="10"></rect>
                <rect id="Rectangle-Copy-275" fill="#8FA39B" x="107.8" y="127.4" width="10" height="10"></rect>
                <rect id="Rectangle-Copy-137" fill="#759890" x="98" y="58.8" width="10" height="10"></rect>
                <rect id="Rectangle-Copy-22" fill="#A0CDC0" x="107.8" y="9.8" width="10" height="10"></rect>
                <rect id="Rectangle-Copy-277" fill="#BFD7D5" x="107.8" y="137.2" width="10" height="10"></rect>
                <rect id="Rectangle-Copy-138" fill="#6E8E85" x="98" y="68.6" width="10" height="10"></rect>
                <rect id="Rectangle-Copy-36" fill="#A0CDC0" x="98" y="19.6" width="10" height="10"></rect>
                <rect id="Rectangle-Copy-279" fill="#CDE7E4" x="107.8" y="0" width="10" height="10"></rect>
                <rect id="Rectangle-Copy-139" fill="#6E8E85" x="98" y="78.4" width="10" height="10"></rect>
                <rect id="Rectangle-Copy-280" fill="#6E8E85" x="107.8" y="88.2" width="10" height="10"></rect>
                <rect id="Rectangle-Copy-50" fill="#A0CDC0" x="107.8" y="19.6" width="10" height="10"></rect>
                <rect id="Rectangle-Copy-234" fill="#A0CDC0" x="107.8" y="29.4" width="10" height="10"></rect>
                <rect id="Rectangle-Copy-236" fill="#A0CDC0" x="98" y="39.2" width="10" height="10"></rect>
                <rect id="Rectangle-Copy-140" fill="#6E8E85" x="107.8" y="98" width="10" height="10"></rect>
                <rect id="Rectangle-Copy-64" fill="#A0CDC0" x="98" y="29.4" width="10" height="10"></rect>
                <rect id="Rectangle-Copy-226" fill="#A0CDC0" x="107.8" y="39.2" width="10" height="10"></rect>
                <rect id="Rectangle-Copy-141" fill="#5D5B4F" x="107.8" y="107.8" width="10" height="10"></rect>
                <rect id="Rectangle-Copy-78" fill="#A0CDC0" x="107.8" y="49" width="10" height="10"></rect>
                <rect id="Rectangle-Copy-142" fill="#89877A" x="107.8" y="117.6" width="10" height="10"></rect>
                <rect id="Rectangle-Copy-287" fill="#775236" x="49" y="127.4" width="10" height="10"></rect>
                <rect id="Rectangle-Copy-23" fill="#CDE7E4" x="49" y="9.8" width="10" height="10"></rect>
                <rect id="Rectangle-Copy-289" fill="#4F443A" x="49" y="137.2" width="10" height="10"></rect>
                <rect id="Rectangle-Copy-37" fill="#414B4A" x="49" y="19.6" width="10" height="10"></rect>
                <rect id="Rectangle-Copy-291" fill="#CDE7E4" x="49" y="0" width="10" height="10"></rect>
                <rect id="Rectangle-Copy-292" fill="#AE613A" x="49" y="88.2" width="10" height="10"></rect>
                <rect id="Rectangle-Copy-51" fill="#0A0F0F" x="49" y="29.4" width="10" height="10"></rect>
                <rect id="Rectangle-Copy-146" fill="#B46E42" x="49" y="98" width="10" height="10"></rect>
                <rect id="Rectangle-Copy-65" fill="#0A0F0F" x="49" y="39.2" width="10" height="10"></rect>
                <rect id="Rectangle-Copy-147" fill="#AE613A" x="49" y="117.6" width="10" height="10"></rect>
                <rect id="Rectangle-Copy-79" fill="#0A0F0F" x="49" y="49" width="10" height="10"></rect>
                <rect id="Rectangle-Copy-148" fill="#B46E42" x="49" y="107.8" width="10" height="10"></rect>
                <rect id="Rectangle-Copy-299" fill="#CDE7E4" x="117.6" y="127.4" width="10" height="10"></rect>
                <rect id="Rectangle-Copy-149" fill="#A0CDC0" x="117.6" y="58.8" width="10" height="10"></rect>
                <rect id="Rectangle-Copy-178" fill="#759890" x="107.8" y="58.8" width="10" height="10"></rect>
                <rect id="Rectangle-Copy-24" fill="#BADBD2" x="117.6" y="9.8" width="10" height="10"></rect>
                <rect id="Rectangle-Copy-301" fill="#CDE7E4" x="117.6" y="137.2" width="10" height="10"></rect>
                <rect id="Rectangle-Copy-150" fill="#A0CDC0" x="117.6" y="68.6" width="10" height="10"></rect>
                <rect id="Rectangle-Copy-174" fill="#759890" x="107.8" y="68.6" width="10" height="10"></rect>
                <rect id="Rectangle-Copy-176" fill="#759890" x="107.8" y="78.4" width="10" height="10"></rect>
                <rect id="Rectangle-Copy-38" fill="#BADBD2" x="117.6" y="19.6" width="10" height="10"></rect>
                <rect id="Rectangle-Copy-303" fill="#BADBD2" x="117.6" y="0" width="10" height="10"></rect>
                <rect id="Rectangle-Copy-151" fill="#759890" x="117.6" y="78.4" width="10" height="10"></rect>
                <rect id="Rectangle-Copy-304" fill="#6E8E85" x="117.6" y="88.2" width="10" height="10"></rect>
                <rect id="Rectangle-Copy-52" fill="#BADBD2" x="117.6" y="29.4" width="10" height="10"></rect>
                <rect id="Rectangle-Copy-152" fill="#6E8E85" x="117.6" y="98" width="10" height="10"></rect>
                <rect id="Rectangle-Copy-66" fill="#BADBD2" x="117.6" y="39.2" width="10" height="10"></rect>
                <rect id="Rectangle-Copy-153" fill="#6E8E85" x="117.6" y="107.8" width="10" height="10"></rect>
                <rect id="Rectangle-Copy-80" fill="#A0CDC0" x="117.6" y="49" width="10" height="10"></rect>
                <rect id="Rectangle-Copy-154" fill="#6E8E85" x="117.6" y="117.6" width="10" height="10"></rect>
                <rect id="Rectangle-Copy-311" fill="#684832" x="58.8" y="127.4" width="10" height="10"></rect>
                <rect id="Rectangle-Copy-25" fill="#CDE7E4" x="58.8" y="9.8" width="10" height="10"></rect>
                <rect id="Rectangle-Copy-313" fill="#6E5843" x="58.8" y="137.2" width="10" height="10"></rect>
                <rect id="Rectangle-Copy-39" fill="#414B4A" x="58.8" y="19.6" width="10" height="10"></rect>
                <rect id="Rectangle-Copy-315" fill="#CDE7E4" x="58.8" y="0" width="10" height="10"></rect>
                <rect id="Rectangle-Copy-53" fill="#0A0F0F" x="58.8" y="29.4" width="10" height="10"></rect>
                <rect id="Rectangle-Copy-158" fill="#433021" x="58.8" y="107.8" width="10" height="10"></rect>
                <rect id="Rectangle-Copy-67" fill="#0A0F0F" x="58.8" y="39.2" width="10" height="10"></rect>
                <rect id="Rectangle-Copy-159" fill="#AE613A" x="58.8" y="98" width="10" height="10"></rect>
                <rect id="Rectangle-Copy-81" fill="#0A0F0F" x="58.8" y="49" width="10" height="10"></rect>
                <rect id="Rectangle-Copy-160" fill="#7D4E30" x="58.8" y="117.6" width="10" height="10"></rect>
                <rect id="Rectangle-Copy-323" fill="#CDE7E4" x="127.4" y="127.4" width="10" height="10"></rect>
                <rect id="Rectangle-Copy-633" fill="#CDE7E4" x="137.2" y="127.4" width="10" height="10"></rect>
                <rect id="Rectangle-Copy-161" fill="#A0CDC0" x="127.4" y="58.8" width="10" height="10"></rect>
                <rect id="Rectangle-Copy-316" fill="#BADBD2" x="137.2" y="58.8" width="10" height="10"></rect>
                <rect id="Rectangle-Copy-26" fill="#BADBD2" x="127.4" y="9.8" width="10" height="10"></rect>
                <rect id="Rectangle-Copy-34" fill="#CDE7E4" x="137.2" y="9.8" width="10" height="10"></rect>
                <rect id="Rectangle-Copy-325" fill="#CDE7E4" x="127.4" y="137.2" width="10" height="10"></rect>
                <rect id="Rectangle-Copy-636" fill="#CDE7E4" x="137.2" y="137.2" width="10" height="10"></rect>
                <rect id="Rectangle-Copy-162" fill="#A0CDC0" x="127.4" y="68.6" width="10" height="10"></rect>
                <rect id="Rectangle-Copy-637" fill="#BADBD2" x="137.2" y="68.6" width="10" height="10"></rect>
                <rect id="Rectangle-Copy-40" fill="#BADBD2" x="127.4" y="19.6" width="10" height="10"></rect>
                <rect id="Rectangle-Copy-46" fill="#CDE7E4" x="137.2" y="19.6" width="10" height="10"></rect>
                <rect id="Rectangle-Copy-327" fill="#BADBD2" x="127.4" y="0" width="10" height="10"></rect>
                <rect id="Rectangle-Copy-639" fill="#CDE7E4" x="137.2" y="0" width="10" height="10"></rect>
                <rect id="Rectangle-Copy-163" fill="#759890" x="127.4" y="78.4" width="10" height="10"></rect>
                <rect id="Rectangle-Copy-640" fill="#A0CDC0" x="137.2" y="78.4" width="10" height="10"></rect>
                <rect id="Rectangle-Copy-328" fill="#6E8E85" x="127.4" y="88.2" width="10" height="10"></rect>
                <rect id="Rectangle-Copy-641" fill="#A0CDC0" x="137.2" y="88.2" width="10" height="10"></rect>
                <rect id="Rectangle-Copy-54" fill="#BADBD2" x="127.4" y="29.4" width="10" height="10"></rect>
                <rect id="Rectangle-Copy-60" fill="#CDE7E4" x="137.2" y="29.4" width="10" height="10"></rect>
                <rect id="Rectangle-Copy-164" fill="#6E8E85" x="127.4" y="98" width="10" height="10"></rect>
                <rect id="Rectangle-Copy-643" fill="#A0CDC0" x="137.2" y="98" width="10" height="10"></rect>
                <rect id="Rectangle-Copy-68" fill="#BADBD2" x="127.4" y="39.2" width="10" height="10"></rect>
                <rect id="Rectangle-Copy-89" fill="#BADBD2" x="137.2" y="39.2" width="10" height="10"></rect>
                <rect id="Rectangle-Copy-165" fill="#6E8E85" x="127.4" y="107.8" width="10" height="10"></rect>
                <rect id="Rectangle-Copy-645" fill="#A0CDC0" x="137.2" y="107.8" width="10" height="10"></rect>
                <rect id="Rectangle-Copy-82" fill="#BADBD2" x="127.4" y="49" width="10" height="10"></rect>
                <rect id="Rectangle-Copy-91" fill="#BADBD2" x="137.2" y="49" width="10" height="10"></rect>
                <rect id="Rectangle-Copy-166" fill="#6E8E85" x="127.4" y="117.6" width="10" height="10"></rect>
                <rect id="Rectangle-Copy-647" fill="#A0CDC0" x="137.2" y="117.6" width="10" height="10"></rect>
                <rect id="Rectangle" stroke="#000000" x="-0.5" y="-0.5" width="148" height="148"></rect>
            </g>
        </g>
    </g>
</svg>