<?xml version="1.0" encoding="UTF-8"?>
<svg width="149px" height="149px" viewBox="0 0 149 149" version="1.1" xmlns="http://www.w3.org/2000/svg" xmlns:xlink="http://www.w3.org/1999/xlink">
    <title>save_it_for_later</title>
    <g id="Page-1" stroke="none" stroke-width="1" fill="none" fill-rule="evenodd">
        <g id="save_it_for_later" transform="translate(1.000000, 1.000000)">
            <rect id="Rectangle-Copy-168" fill="#B1A188" x="0" y="127.4" width="10" height="10"></rect>
            <rect id="Rectangle-Copy-102" fill="#3C221D" x="0" y="58.8" width="10" height="10"></rect>
            <rect id="Rectangle-Copy-103" fill="#87AFB9" x="0" y="9.8" width="10" height="10"></rect>
            <rect id="Rectangle-Copy-170" fill="#999481" x="0" y="137.2" width="10" height="10"></rect>
            <rect id="Rectangle-Copy-120" fill="#3C221D" x="0" y="68.6" width="10" height="10"></rect>
            <rect id="Rectangle-Copy-187" fill="#271010" x="19.6" y="68.6" width="10" height="10"></rect>
            <rect id="Rectangle-Copy-131" fill="#9FBAC0" x="0" y="19.6" width="10" height="10"></rect>
            <rect id="Rectangle-Copy-173" fill="#A2151C" x="0" y="0" width="10" height="10"></rect>
            <rect id="Rectangle-Copy-133" fill="#3C221D" x="0" y="78.4" width="10" height="10"></rect>
            <rect id="Rectangle-Copy-175" fill="#3C221D" x="0" y="88.2" width="10" height="10"></rect>
            <rect id="Rectangle-Copy-143" fill="#9FBAC0" x="0" y="29.4" width="10" height="10"></rect>
            <rect id="Rectangle-Copy-145" fill="#D35F3A" x="0" y="98" width="10" height="10"></rect>
            <rect id="Rectangle-Copy-157" fill="#8F9282" x="0" y="39.2" width="10" height="10"></rect>
            <rect id="Rectangle-Copy-177" fill="#6C4A37" x="0" y="107.8" width="10" height="10"></rect>
            <rect id="Rectangle-Copy-180" fill="#3C221D" x="0" y="49" width="10" height="10"></rect>
            <rect id="Rectangle-Copy-182" fill="#989078" x="0" y="117.6" width="10" height="10"></rect>
            <rect id="Rectangle-Copy-185" fill="#BA997B" x="68.6" y="127.4" width="10" height="10"></rect>
            <rect id="Rectangle-Copy-189" fill="#55326A" x="68.6" y="9.8" width="10" height="10"></rect>
            <rect id="Rectangle-Copy-192" fill="#999481" x="68.6" y="137.2" width="10" height="10"></rect>
            <rect id="Rectangle-Copy-194" fill="#8F9282" x="58.8" y="68.6" width="10" height="10"></rect>
            <rect id="Rectangle-Copy-197" fill="#42201E" x="9.8" y="58.8" width="10" height="10"></rect>
            <rect id="Rectangle-Copy-199" fill="#42201E" x="9.8" y="68.6" width="10" height="10"></rect>
            <rect id="Rectangle-Copy-201" fill="#271010" x="9.8" y="78.4" width="10" height="10"></rect>
            <rect id="Rectangle-Copy-204" fill="#42201E" x="19.6" y="58.8" width="10" height="10"></rect>
            <rect id="Rectangle-Copy-206" fill="#271010" x="19.6" y="78.4" width="10" height="10"></rect>
            <rect id="Rectangle-Copy-209" fill="#271010" x="29.4" y="68.6" width="10" height="10"></rect>
            <rect id="Rectangle-Copy-211" fill="#271010" x="39.2" y="68.6" width="10" height="10"></rect>
            <rect id="Rectangle-Copy-213" fill="#3C221D" x="49" y="58.8" width="10" height="10"></rect>
            <rect id="Rectangle-Copy-216" fill="#FFFFFF" x="49" y="68.6" width="10" height="10"></rect>
            <rect id="Rectangle-Copy-218" fill="#553875" x="68.6" y="19.6" width="10" height="10"></rect>
            <rect id="Rectangle-Copy-221" fill="#988BAE" x="58.8" y="58.8" width="10" height="10"></rect>
            <rect id="Rectangle-Copy-223" fill="#A2151C" x="68.6" y="0" width="10" height="10"></rect>
            <rect id="Rectangle-Copy-225" fill="#3C221D" x="68.6" y="88.2" width="10" height="10"></rect>
            <rect id="Rectangle-Copy-228" fill="#542C62" x="68.6" y="29.4" width="10" height="10"></rect>
            <rect id="Rectangle-Copy-230" fill="#42201E" x="68.6" y="98" width="10" height="10"></rect>
            <rect id="Rectangle-Copy-233" fill="#553875" x="68.6" y="39.2" width="10" height="10"></rect>
            <rect id="Rectangle-Copy-235" fill="#6C4A37" x="68.6" y="107.8" width="10" height="10"></rect>
            <rect id="Rectangle-Copy-237" fill="#78679C" x="68.6" y="49" width="10" height="10"></rect>
            <rect id="Rectangle-Copy-240" fill="#989078" x="68.6" y="117.6" width="10" height="10"></rect>
            <rect id="Rectangle-Copy-242" fill="#B1A188" x="9.8" y="127.4" width="10" height="10"></rect>
            <rect id="Rectangle-Copy-245" fill="#87AFB9" x="9.8" y="9.8" width="10" height="10"></rect>
            <rect id="Rectangle-Copy-246" fill="#999481" x="9.8" y="137.2" width="10" height="10"></rect>
            <rect id="Rectangle-Copy-247" fill="#9FBAC0" x="9.8" y="19.6" width="10" height="10"></rect>
            <rect id="Rectangle-Copy-248" fill="#A2151C" x="9.8" y="0" width="10" height="10"></rect>
            <rect id="Rectangle-Copy-249" fill="#6C4A37" x="9.8" y="88.2" width="10" height="10"></rect>
            <rect id="Rectangle-Copy-250" fill="#8F9282" x="9.8" y="29.4" width="10" height="10"></rect>
            <rect id="Rectangle-Copy-252" fill="#F9B841" x="9.8" y="98" width="10" height="10"></rect>
            <rect id="Rectangle-Copy-254" fill="#9FBAC0" x="9.8" y="39.2" width="10" height="10"></rect>
            <rect id="Rectangle-Copy-257" fill="#6C4A37" x="9.8" y="107.8" width="10" height="10"></rect>
            <rect id="Rectangle-Copy-258" fill="#271010" x="9.8" y="49" width="10" height="10"></rect>
            <rect id="Rectangle-Copy-259" fill="#989078" x="9.8" y="117.6" width="10" height="10"></rect>
            <rect id="Rectangle-Copy-260" fill="#B1A188" x="78.4" y="127.4" width="10" height="10"></rect>
            <rect id="Rectangle-Copy-261" fill="#55326A" x="78.4" y="9.8" width="10" height="10"></rect>
            <rect id="Rectangle-Copy-262" fill="#999481" x="78.4" y="137.2" width="10" height="10"></rect>
            <rect id="Rectangle-Copy-264" fill="#542C62" x="78.4" y="19.6" width="10" height="10"></rect>
            <rect id="Rectangle-Copy-266" fill="#988BAE" x="68.6" y="58.8" width="10" height="10"></rect>
            <rect id="Rectangle-Copy-269" fill="#A2151C" x="78.4" y="0" width="10" height="10"></rect>
            <rect id="Rectangle-Copy-270" fill="#FFFFFF" x="78.4" y="88.2" width="10" height="10"></rect>
            <rect id="Rectangle-Copy-271" fill="#542C62" x="78.4" y="29.4" width="10" height="10"></rect>
            <rect id="Rectangle-Copy-272" fill="#8B6A68" x="68.6" y="68.6" width="10" height="10"></rect>
            <rect id="Rectangle-Copy-273" fill="#6C4A37" x="78.4" y="98" width="10" height="10"></rect>
            <rect id="Rectangle-Copy-274" fill="#553875" x="78.4" y="39.2" width="10" height="10"></rect>
            <rect id="Rectangle-Copy-276" fill="#6C4A37" x="78.4" y="107.8" width="10" height="10"></rect>
            <rect id="Rectangle-Copy-278" fill="#78679C" x="78.4" y="49" width="10" height="10"></rect>
            <rect id="Rectangle-Copy-281" fill="#BA997B" x="78.4" y="117.6" width="10" height="10"></rect>
            <rect id="Rectangle-Copy-282" fill="#9EAB92" x="19.6" y="127.4" width="10" height="10"></rect>
            <rect id="Rectangle-Copy-283" fill="#87AFB9" x="19.6" y="9.8" width="10" height="10"></rect>
            <rect id="Rectangle-Copy-284" fill="#BA997B" x="19.6" y="137.2" width="10" height="10"></rect>
            <rect id="Rectangle-Copy-285" fill="#87AFB9" x="19.6" y="19.6" width="10" height="10"></rect>
            <rect id="Rectangle-Copy-286" fill="#A2151C" x="19.6" y="0" width="10" height="10"></rect>
            <rect id="Rectangle-Copy-288" fill="#6C4A37" x="19.6" y="88.2" width="10" height="10"></rect>
            <rect id="Rectangle-Copy-290" fill="#9FBAC0" x="19.6" y="29.4" width="10" height="10"></rect>
            <rect id="Rectangle-Copy-293" fill="#6C4A37" x="19.6" y="98" width="10" height="10"></rect>
            <rect id="Rectangle-Copy-294" fill="#9FBAC0" x="19.6" y="39.2" width="10" height="10"></rect>
            <rect id="Rectangle-Copy-295" fill="#6C4A37" x="19.6" y="107.8" width="10" height="10"></rect>
            <rect id="Rectangle-Copy-296" fill="#3C221D" x="19.6" y="49" width="10" height="10"></rect>
            <rect id="Rectangle-Copy-297" fill="#9EAB92" x="19.6" y="117.6" width="10" height="10"></rect>
            <rect id="Rectangle-Copy-298" fill="#B1A188" x="88.2" y="127.4" width="10" height="10"></rect>
            <rect id="Rectangle-Copy-300" fill="#988BAE" x="78.4" y="58.8" width="10" height="10"></rect>
            <rect id="Rectangle-Copy-302" fill="#55326A" x="88.2" y="9.8" width="10" height="10"></rect>
            <rect id="Rectangle-Copy-305" fill="#999481" x="88.2" y="137.2" width="10" height="10"></rect>
            <rect id="Rectangle-Copy-306" fill="#3C221D" x="78.4" y="68.6" width="10" height="10"></rect>
            <rect id="Rectangle-Copy-307" fill="#55326A" x="88.2" y="19.6" width="10" height="10"></rect>
            <rect id="Rectangle-Copy-308" fill="#A2151C" x="88.2" y="0" width="10" height="10"></rect>
            <rect id="Rectangle-Copy-309" fill="#3C221D" x="78.4" y="78.4" width="10" height="10"></rect>
            <rect id="Rectangle-Copy-310" fill="#8F9282" x="88.2" y="88.2" width="10" height="10"></rect>
            <rect id="Rectangle-Copy-312" fill="#271010" x="88.2" y="98" width="10" height="10"></rect>
            <rect id="Rectangle-Copy-314" fill="#6C4A37" x="88.2" y="107.8" width="10" height="10"></rect>
            <rect id="Rectangle-Copy-317" fill="#78679C" x="88.2" y="49" width="10" height="10"></rect>
            <rect id="Rectangle-Copy-318" fill="#989078" x="88.2" y="117.6" width="10" height="10"></rect>
            <rect id="Rectangle-Copy-319" fill="#B1A188" x="39.2" y="127.4" width="10" height="10"></rect>
            <rect id="Rectangle-Copy-320" fill="#55326A" x="29.4" y="9.8" width="10" height="10"></rect>
            <rect id="Rectangle-Copy-321" fill="#999481" x="29.4" y="137.2" width="10" height="10"></rect>
            <rect id="Rectangle-Copy-322" fill="#87AFB9" x="29.4" y="19.6" width="10" height="10"></rect>
            <rect id="Rectangle-Copy-324" fill="#A2151C" x="29.4" y="0" width="10" height="10"></rect>
            <rect id="Rectangle-Copy-326" fill="#271010" x="29.4" y="88.2" width="10" height="10"></rect>
            <rect id="Rectangle-Copy-329" fill="#87AFB9" x="29.4" y="29.4" width="10" height="10"></rect>
            <rect id="Rectangle-Copy-330" fill="#271010" x="29.4" y="98" width="10" height="10"></rect>
            <rect id="Rectangle-Copy-331" fill="#8F9282" x="29.4" y="39.2" width="10" height="10"></rect>
            <rect id="Rectangle-Copy-332" fill="#BA997B" x="29.4" y="107.8" width="10" height="10"></rect>
            <rect id="Rectangle-Copy-333" fill="#271010" x="29.4" y="49" width="10" height="10"></rect>
            <rect id="Rectangle-Copy-334" fill="#42201E" x="29.4" y="58.8" width="10" height="10"></rect>
            <rect id="Rectangle-Copy-335" fill="#42201E" x="29.4" y="78.4" width="10" height="10"></rect>
            <rect id="Rectangle-Copy-336" fill="#D35F3A" x="58.8" y="78.4" width="10" height="10"></rect>
            <rect id="Rectangle-Copy-337" fill="#3C221D" x="58.8" y="88.2" width="10" height="10"></rect>
            <rect id="Rectangle-Copy-338" fill="#3C221D" x="68.6" y="78.4" width="10" height="10"></rect>
            <rect id="Rectangle-Copy-339" fill="#989078" x="29.4" y="117.6" width="10" height="10"></rect>
            <rect id="Rectangle-Copy-340" fill="#9EAB92" x="98" y="127.4" width="10" height="10"></rect>
            <rect id="Rectangle-Copy-341" fill="#988BAE" x="88.2" y="58.8" width="10" height="10"></rect>
            <rect id="Rectangle-Copy-342" fill="#FFFFFF" x="98" y="9.8" width="10" height="10"></rect>
            <rect id="Rectangle-Copy-343" fill="#999481" x="98" y="137.2" width="10" height="10"></rect>
            <rect id="Rectangle-Copy-344" fill="#3C221D" x="88.2" y="68.6" width="10" height="10"></rect>
            <rect id="Rectangle-Copy-345" fill="#A2151C" x="98" y="0" width="10" height="10"></rect>
            <rect id="Rectangle-Copy-346" fill="#271010" x="88.2" y="78.4" width="10" height="10"></rect>
            <rect id="Rectangle-Copy-347" fill="#3C221D" x="98" y="88.2" width="10" height="10"></rect>
            <rect id="Rectangle-Copy-348" fill="#55326A" x="88.2" y="29.4" width="10" height="10"></rect>
            <rect id="Rectangle-Copy-349" fill="#271010" x="98" y="98" width="10" height="10"></rect>
            <rect id="Rectangle-Copy-350" fill="#553875" x="88.2" y="39.2" width="10" height="10"></rect>
            <rect id="Rectangle-Copy-351" fill="#6C4A37" x="98" y="107.8" width="10" height="10"></rect>
            <rect id="Rectangle-Copy-352" fill="#78679C" x="98" y="49" width="10" height="10"></rect>
            <rect id="Rectangle-Copy-353" fill="#989078" x="98" y="117.6" width="10" height="10"></rect>
            <rect id="Rectangle-Copy-354" fill="#B1A188" x="29.4" y="127.4" width="10" height="10"></rect>
            <rect id="Rectangle-Copy-355" fill="#55326A" x="39.2" y="9.8" width="10" height="10"></rect>
            <rect id="Rectangle-Copy-356" fill="#9EAB92" x="39.2" y="137.2" width="10" height="10"></rect>
            <rect id="Rectangle-Copy-357" fill="#55326A" x="39.2" y="19.6" width="10" height="10"></rect>
            <rect id="Rectangle-Copy-358" fill="#A2151C" x="39.2" y="0" width="10" height="10"></rect>
            <rect id="Rectangle-Copy-359" fill="#271010" x="39.2" y="88.2" width="10" height="10"></rect>
            <rect id="Rectangle-Copy-360" fill="#55326A" x="39.2" y="29.4" width="10" height="10"></rect>
            <rect id="Rectangle-Copy-361" fill="#D35F3A" x="39.2" y="98" width="10" height="10"></rect>
            <rect id="Rectangle-Copy-362" fill="#8F9282" x="39.2" y="39.2" width="10" height="10"></rect>
            <rect id="Rectangle-Copy-363" fill="#F9B841" x="39.2" y="107.8" width="10" height="10"></rect>
            <rect id="Rectangle-Copy-364" fill="#3C221D" x="39.2" y="49" width="10" height="10"></rect>
            <rect id="Rectangle-Copy-365" fill="#271010" x="39.2" y="58.8" width="10" height="10"></rect>
            <rect id="Rectangle-Copy-366" fill="#271010" x="39.2" y="78.4" width="10" height="10"></rect>
            <rect id="Rectangle-Copy-367" fill="#8F9282" x="49" y="78.4" width="10" height="10"></rect>
            <rect id="Rectangle-Copy-368" fill="#989078" x="39.2" y="117.6" width="10" height="10"></rect>
            <rect id="Rectangle-Copy-369" fill="#B1A188" x="107.8" y="127.4" width="10" height="10"></rect>
            <rect id="Rectangle-Copy-370" fill="#988BAE" x="98" y="58.8" width="10" height="10"></rect>
            <rect id="Rectangle-Copy-371" fill="#FFFFFF" x="107.8" y="9.8" width="10" height="10"></rect>
            <rect id="Rectangle-Copy-372" fill="#999481" x="107.8" y="137.2" width="10" height="10"></rect>
            <rect id="Rectangle-Copy-373" fill="#3C221D" x="98" y="68.6" width="10" height="10"></rect>
            <rect id="Rectangle-Copy-374" fill="#FFFFFF" x="98" y="19.6" width="10" height="10"></rect>
            <rect id="Rectangle-Copy-375" fill="#A2151C" x="107.8" y="0" width="10" height="10"></rect>
            <rect id="Rectangle-Copy-376" fill="#3C221D" x="98" y="78.4" width="10" height="10"></rect>
            <rect id="Rectangle-Copy-377" fill="#3C221D" x="107.8" y="88.2" width="10" height="10"></rect>
            <rect id="Rectangle-Copy-378" fill="#FFFFFF" x="107.8" y="19.6" width="10" height="10"></rect>
            <rect id="Rectangle-Copy-379" fill="#55326A" x="107.8" y="29.4" width="10" height="10"></rect>
            <rect id="Rectangle-Copy-380" fill="#55326A" x="98" y="39.2" width="10" height="10"></rect>
            <rect id="Rectangle-Copy-381" fill="#271010" x="107.8" y="98" width="10" height="10"></rect>
            <rect id="Rectangle-Copy-382" fill="#55326A" x="98" y="29.4" width="10" height="10"></rect>
            <rect id="Rectangle-Copy-383" fill="#55326A" x="107.8" y="39.2" width="10" height="10"></rect>
            <rect id="Rectangle-Copy-384" fill="#6C4A37" x="107.8" y="107.8" width="10" height="10"></rect>
            <rect id="Rectangle-Copy-385" fill="#78679C" x="107.8" y="49" width="10" height="10"></rect>
            <rect id="Rectangle-Copy-386" fill="#9EAB92" x="107.8" y="117.6" width="10" height="10"></rect>
            <rect id="Rectangle-Copy-387" fill="#B1A188" x="49" y="127.4" width="10" height="10"></rect>
            <rect id="Rectangle-Copy-388" fill="#55326A" x="49" y="9.8" width="10" height="10"></rect>
            <rect id="Rectangle-Copy-389" fill="#999481" x="49" y="137.2" width="10" height="10"></rect>
            <rect id="Rectangle-Copy-390" fill="#553875" x="49" y="19.6" width="10" height="10"></rect>
            <rect id="Rectangle-Copy-391" fill="#A2151C" x="49" y="0" width="10" height="10"></rect>
            <rect id="Rectangle-Copy-392" fill="#42201E" x="49" y="88.2" width="10" height="10"></rect>
            <rect id="Rectangle-Copy-393" fill="#553875" x="49" y="29.4" width="10" height="10"></rect>
            <rect id="Rectangle-Copy-394" fill="#42201E" x="49" y="98" width="10" height="10"></rect>
            <rect id="Rectangle-Copy-395" fill="#55326A" x="49" y="39.2" width="10" height="10"></rect>
            <rect id="Rectangle-Copy-396" fill="#9EAB92" x="49" y="117.6" width="10" height="10"></rect>
            <rect id="Rectangle-Copy-397" fill="#3C221D" x="49" y="49" width="10" height="10"></rect>
            <rect id="Rectangle-Copy-398" fill="#BA997B" x="49" y="107.8" width="10" height="10"></rect>
            <rect id="Rectangle-Copy-399" fill="#B1A188" x="117.6" y="127.4" width="10" height="10"></rect>
            <rect id="Rectangle-Copy-400" fill="#271010" x="117.6" y="58.8" width="10" height="10"></rect>
            <rect id="Rectangle-Copy-401" fill="#8FAB54" x="107.8" y="58.8" width="10" height="10"></rect>
            <rect id="Rectangle-Copy-402" fill="#EE3237" x="117.6" y="9.8" width="10" height="10"></rect>
            <rect id="Rectangle-Copy-403" fill="#9EAB92" x="117.6" y="137.2" width="10" height="10"></rect>
            <rect id="Rectangle-Copy-404" fill="#8B6A68" x="117.6" y="68.6" width="10" height="10"></rect>
            <rect id="Rectangle-Copy-405" fill="#887D9A" x="107.8" y="68.6" width="10" height="10"></rect>
            <rect id="Rectangle-Copy-406" fill="#8F9282" x="107.8" y="78.4" width="10" height="10"></rect>
            <rect id="Rectangle-Copy-407" fill="#FFFFFF" x="117.6" y="19.6" width="10" height="10"></rect>
            <rect id="Rectangle-Copy-408" fill="#A2151C" x="117.6" y="0" width="10" height="10"></rect>
            <rect id="Rectangle-Copy-409" fill="#8F9282" x="117.6" y="78.4" width="10" height="10"></rect>
            <rect id="Rectangle-Copy-410" fill="#3C221D" x="117.6" y="88.2" width="10" height="10"></rect>
            <rect id="Rectangle-Copy-411" fill="#55326A" x="117.6" y="29.4" width="10" height="10"></rect>
            <rect id="Rectangle-Copy-412" fill="#3C221D" x="117.6" y="98" width="10" height="10"></rect>
            <rect id="Rectangle-Copy-413" fill="#55326A" x="117.6" y="39.2" width="10" height="10"></rect>
            <rect id="Rectangle-Copy-414" fill="#6C4A37" x="117.6" y="107.8" width="10" height="10"></rect>
            <rect id="Rectangle-Copy-415" fill="#7C5E8E" x="117.6" y="49" width="10" height="10"></rect>
            <rect id="Rectangle-Copy-416" fill="#989078" x="117.6" y="117.6" width="10" height="10"></rect>
            <rect id="Rectangle-Copy-417" fill="#B1A188" x="58.8" y="127.4" width="10" height="10"></rect>
            <rect id="Rectangle-Copy-418" fill="#55326A" x="58.8" y="9.8" width="10" height="10"></rect>
            <rect id="Rectangle-Copy-419" fill="#BA997B" x="58.8" y="137.2" width="10" height="10"></rect>
            <rect id="Rectangle-Copy-420" fill="#542C62" x="58.8" y="19.6" width="10" height="10"></rect>
            <rect id="Rectangle-Copy-421" fill="#A2151C" x="58.8" y="0" width="10" height="10"></rect>
            <rect id="Rectangle-Copy-422" fill="#553875" x="58.8" y="29.4" width="10" height="10"></rect>
            <rect id="Rectangle-Copy-423" fill="#6C4A37" x="58.8" y="107.8" width="10" height="10"></rect>
            <rect id="Rectangle-Copy-424" fill="#55326A" x="58.8" y="39.2" width="10" height="10"></rect>
            <rect id="Rectangle-Copy-425" fill="#3C221D" x="58.8" y="98" width="10" height="10"></rect>
            <rect id="Rectangle-Copy-426" fill="#78679C" x="58.8" y="49" width="10" height="10"></rect>
            <rect id="Rectangle-Copy-427" fill="#BA997B" x="58.8" y="117.6" width="10" height="10"></rect>
            <rect id="Rectangle-Copy-428" fill="#B1A188" x="127.4" y="127.4" width="10" height="10"></rect>
            <rect id="Rectangle-Copy-634" fill="#B1A188" x="137.2" y="127.4" width="10" height="10"></rect>
            <rect id="Rectangle-Copy-429" fill="#887D9A" x="127.4" y="58.8" width="10" height="10"></rect>
            <rect id="Rectangle-Copy-430" fill="#271010" x="137.2" y="58.8" width="10" height="10"></rect>
            <rect id="Rectangle-Copy-431" fill="#EE3237" x="127.4" y="9.8" width="10" height="10"></rect>
            <rect id="Rectangle-Copy-432" fill="#F03036" x="137.2" y="9.8" width="10" height="10"></rect>
            <rect id="Rectangle-Copy-433" fill="#999481" x="127.4" y="137.2" width="10" height="10"></rect>
            <rect id="Rectangle-Copy-638" fill="#999481" x="137.2" y="137.2" width="10" height="10"></rect>
            <rect id="Rectangle-Copy-434" fill="#271010" x="127.4" y="68.6" width="10" height="10"></rect>
            <rect id="Rectangle-Copy-642" fill="#271010" x="137.2" y="68.6" width="10" height="10"></rect>
            <rect id="Rectangle-Copy-435" fill="#F48586" x="127.4" y="19.6" width="10" height="10"></rect>
            <rect id="Rectangle-Copy-436" fill="#EE3237" x="137.2" y="19.6" width="10" height="10"></rect>
            <rect id="Rectangle-Copy-437" fill="#A2151C" x="127.4" y="0" width="10" height="10"></rect>
            <rect id="Rectangle-Copy-644" fill="#AC161D" x="137.2" y="0" width="10" height="10"></rect>
            <rect id="Rectangle-Copy-438" fill="#271010" x="127.4" y="78.4" width="10" height="10"></rect>
            <rect id="Rectangle-Copy-646" fill="#271010" x="137.2" y="78.4" width="10" height="10"></rect>
            <rect id="Rectangle-Copy-439" fill="#3C221D" x="127.4" y="88.2" width="10" height="10"></rect>
            <rect id="Rectangle-Copy-648" fill="#3C221D" x="137.2" y="88.2" width="10" height="10"></rect>
            <rect id="Rectangle-Copy-440" fill="#55326A" x="127.4" y="29.4" width="10" height="10"></rect>
            <rect id="Rectangle-Copy-441" fill="#55326A" x="137.2" y="29.4" width="10" height="10"></rect>
            <rect id="Rectangle-Copy-442" fill="#42201E" x="127.4" y="98" width="10" height="10"></rect>
            <rect id="Rectangle-Copy-649" fill="#42201E" x="137.2" y="98" width="10" height="10"></rect>
            <rect id="Rectangle-Copy-443" fill="#55326A" x="127.4" y="39.2" width="10" height="10"></rect>
            <rect id="Rectangle-Copy-444" fill="#55326A" x="137.2" y="39.2" width="10" height="10"></rect>
            <rect id="Rectangle-Copy-445" fill="#6C4A37" x="127.4" y="107.8" width="10" height="10"></rect>
            <rect id="Rectangle-Copy-650" fill="#6C4A37" x="137.2" y="107.8" width="10" height="10"></rect>
            <rect id="Rectangle-Copy-446" fill="#8F9282" x="127.4" y="49" width="10" height="10"></rect>
            <rect id="Rectangle-Copy-447" fill="#7C5E8E" x="137.2" y="49" width="10" height="10"></rect>
            <rect id="Rectangle-Copy-448" fill="#BA997B" x="127.4" y="117.6" width="10" height="10"></rect>
            <rect id="Rectangle-Copy-651" fill="#989078" x="137.2" y="117.6" width="10" height="10"></rect>
            <rect id="Rectangle" stroke="#000000" x="-0.5" y="-0.5" width="148" height="148"></rect>
        </g>
    </g>
</svg>