<?xml version="1.0" encoding="UTF-8"?>
<svg width="149px" height="149px" viewBox="0 0 149 149" version="1.1" xmlns="http://www.w3.org/2000/svg" xmlns:xlink="http://www.w3.org/1999/xlink">
    <title>uncontrollable_urge</title>
    <g id="Page-1" stroke="none" stroke-width="1" fill="none" fill-rule="evenodd">
        <g id="uncontrollable_urge" transform="translate(1.000000, 1.000000)">
            <rect id="Rectangle-Copy-168" fill="#FBE901" x="0" y="127.4" width="10" height="10"></rect>
            <rect id="Rectangle-Copy-102" fill="#FBE901" x="0" y="58.8" width="10" height="10"></rect>
            <rect id="Rectangle-Copy-103" fill="#FBE901" x="0" y="9.8" width="10" height="10"></rect>
            <rect id="Rectangle-Copy-170" fill="#FBE901" x="0" y="137.2" width="10" height="10"></rect>
            <rect id="Rectangle-Copy-120" fill="#FBE901" x="0" y="68.6" width="10" height="10"></rect>
            <rect id="Rectangle-Copy-187" fill="#FFFFFF" x="19.6" y="68.6" width="10" height="10"></rect>
            <rect id="Rectangle-Copy-131" fill="#FBE901" x="0" y="19.6" width="10" height="10"></rect>
            <rect id="Rectangle-Copy-173" fill="#FBE901" x="0" y="0" width="10" height="10"></rect>
            <rect id="Rectangle-Copy-133" fill="#FBE901" x="0" y="78.4" width="10" height="10"></rect>
            <rect id="Rectangle-Copy-175" fill="#FBE901" x="0" y="88.2" width="10" height="10"></rect>
            <rect id="Rectangle-Copy-143" fill="#FBE901" x="0" y="29.4" width="10" height="10"></rect>
            <rect id="Rectangle-Copy-145" fill="#FBE901" x="0" y="98" width="10" height="10"></rect>
            <rect id="Rectangle-Copy-157" fill="#FBE901" x="0" y="39.2" width="10" height="10"></rect>
            <rect id="Rectangle-Copy-177" fill="#FBE901" x="0" y="107.8" width="10" height="10"></rect>
            <rect id="Rectangle-Copy-180" fill="#FBE901" x="0" y="49" width="10" height="10"></rect>
            <rect id="Rectangle-Copy-182" fill="#FBE901" x="0" y="117.6" width="10" height="10"></rect>
            <rect id="Rectangle-Copy-185" fill="#B4582A" x="68.6" y="127.4" width="10" height="10"></rect>
            <rect id="Rectangle-Copy-189" fill="#8B6A9E" x="68.6" y="9.8" width="10" height="10"></rect>
            <rect id="Rectangle-Copy-192" fill="#B14928" x="68.6" y="137.2" width="10" height="10"></rect>
            <rect id="Rectangle-Copy-194" fill="#CB8655" x="58.8" y="68.6" width="10" height="10"></rect>
            <rect id="Rectangle-Copy-197" fill="#FFFFFF" x="9.8" y="58.8" width="10" height="10"></rect>
            <rect id="Rectangle-Copy-199" fill="#FFFFFF" x="9.8" y="68.6" width="10" height="10"></rect>
            <rect id="Rectangle-Copy-201" fill="#FFFFFF" x="9.8" y="78.4" width="10" height="10"></rect>
            <rect id="Rectangle-Copy-204" fill="#FFFFFF" x="19.6" y="58.8" width="10" height="10"></rect>
            <rect id="Rectangle-Copy-206" fill="#FFFFFF" x="19.6" y="78.4" width="10" height="10"></rect>
            <rect id="Rectangle-Copy-209" fill="#FFFFFF" x="29.4" y="68.6" width="10" height="10"></rect>
            <rect id="Rectangle-Copy-211" fill="#5F2B23" x="39.2" y="68.6" width="10" height="10"></rect>
            <rect id="Rectangle-Copy-213" fill="#CB8655" x="49" y="58.8" width="10" height="10"></rect>
            <rect id="Rectangle-Copy-216" fill="#5F2B23" x="49" y="68.6" width="10" height="10"></rect>
            <rect id="Rectangle-Copy-218" fill="#FFFFFF" x="68.6" y="19.6" width="10" height="10"></rect>
            <rect id="Rectangle-Copy-221" fill="#E3C771" x="58.8" y="58.8" width="10" height="10"></rect>
            <rect id="Rectangle-Copy-223" fill="#FBE901" x="68.6" y="0" width="10" height="10"></rect>
            <rect id="Rectangle-Copy-225" fill="#E3C771" x="68.6" y="88.2" width="10" height="10"></rect>
            <rect id="Rectangle-Copy-228" fill="#E9E4B2" x="68.6" y="29.4" width="10" height="10"></rect>
            <rect id="Rectangle-Copy-230" fill="#B14928" x="68.6" y="98" width="10" height="10"></rect>
            <rect id="Rectangle-Copy-233" fill="#A18147" x="68.6" y="39.2" width="10" height="10"></rect>
            <rect id="Rectangle-Copy-235" fill="#CB8655" x="68.6" y="107.8" width="10" height="10"></rect>
            <rect id="Rectangle-Copy-237" fill="#A18147" x="68.6" y="49" width="10" height="10"></rect>
            <rect id="Rectangle-Copy-240" fill="#CB8655" x="68.6" y="117.6" width="10" height="10"></rect>
            <rect id="Rectangle-Copy-242" fill="#FBE901" x="9.8" y="127.4" width="10" height="10"></rect>
            <rect id="Rectangle-Copy-245" fill="#FBE901" x="9.8" y="9.8" width="10" height="10"></rect>
            <rect id="Rectangle-Copy-246" fill="#FBE901" x="9.8" y="137.2" width="10" height="10"></rect>
            <rect id="Rectangle-Copy-247" fill="#FBE901" x="9.8" y="19.6" width="10" height="10"></rect>
            <rect id="Rectangle-Copy-248" fill="#FBE901" x="9.8" y="0" width="10" height="10"></rect>
            <rect id="Rectangle-Copy-249" fill="#FFFFFF" x="9.8" y="88.2" width="10" height="10"></rect>
            <rect id="Rectangle-Copy-250" fill="#FBE901" x="9.8" y="29.4" width="10" height="10"></rect>
            <rect id="Rectangle-Copy-252" fill="#DDDDDD" x="9.8" y="98" width="10" height="10"></rect>
            <rect id="Rectangle-Copy-254" fill="#FFFFFF" x="9.8" y="39.2" width="10" height="10"></rect>
            <rect id="Rectangle-Copy-257" fill="#FFFFFF" x="9.8" y="107.8" width="10" height="10"></rect>
            <rect id="Rectangle-Copy-258" fill="#FFFFFF" x="9.8" y="49" width="10" height="10"></rect>
            <rect id="Rectangle-Copy-259" fill="#FBE901" x="9.8" y="117.6" width="10" height="10"></rect>
            <rect id="Rectangle-Copy-260" fill="#B4582A" x="78.4" y="127.4" width="10" height="10"></rect>
            <rect id="Rectangle-Copy-261" fill="#57358E" x="78.4" y="9.8" width="10" height="10"></rect>
            <rect id="Rectangle-Copy-262" fill="#B14928" x="78.4" y="137.2" width="10" height="10"></rect>
            <rect id="Rectangle-Copy-264" fill="#FFFFFF" x="78.4" y="19.6" width="10" height="10"></rect>
            <rect id="Rectangle-Copy-266" fill="#E3C771" x="68.6" y="58.8" width="10" height="10"></rect>
            <rect id="Rectangle-Copy-269" fill="#FBE901" x="78.4" y="0" width="10" height="10"></rect>
            <rect id="Rectangle-Copy-270" fill="#D08234" x="78.4" y="88.2" width="10" height="10"></rect>
            <rect id="Rectangle-Copy-271" fill="#E9CE4A" x="78.4" y="29.4" width="10" height="10"></rect>
            <rect id="Rectangle-Copy-272" fill="#E3CAB6" x="68.6" y="68.6" width="10" height="10"></rect>
            <rect id="Rectangle-Copy-273" fill="#8A3629" x="78.4" y="98" width="10" height="10"></rect>
            <rect id="Rectangle-Copy-274" fill="#E9E4B2" x="78.4" y="39.2" width="10" height="10"></rect>
            <rect id="Rectangle-Copy-276" fill="#D19437" x="78.4" y="107.8" width="10" height="10"></rect>
            <rect id="Rectangle-Copy-278" fill="#CB8655" x="78.4" y="49" width="10" height="10"></rect>
            <rect id="Rectangle-Copy-281" fill="#8A3629" x="78.4" y="117.6" width="10" height="10"></rect>
            <rect id="Rectangle-Copy-282" fill="#FBE901" x="19.6" y="127.4" width="10" height="10"></rect>
            <rect id="Rectangle-Copy-283" fill="#FBE901" x="19.6" y="9.8" width="10" height="10"></rect>
            <rect id="Rectangle-Copy-284" fill="#FBE901" x="19.6" y="137.2" width="10" height="10"></rect>
            <rect id="Rectangle-Copy-285" fill="#FBE901" x="19.6" y="19.6" width="10" height="10"></rect>
            <rect id="Rectangle-Copy-286" fill="#FBE901" x="19.6" y="0" width="10" height="10"></rect>
            <rect id="Rectangle-Copy-288" fill="#FFFFFF" x="19.6" y="88.2" width="10" height="10"></rect>
            <rect id="Rectangle-Copy-290" fill="#AC9EC3" x="19.6" y="29.4" width="10" height="10"></rect>
            <rect id="Rectangle-Copy-293" fill="#FFFFFF" x="19.6" y="98" width="10" height="10"></rect>
            <rect id="Rectangle-Copy-294" fill="#FFFFFF" x="19.6" y="39.2" width="10" height="10"></rect>
            <rect id="Rectangle-Copy-295" fill="#DDDDDD" x="19.6" y="107.8" width="10" height="10"></rect>
            <rect id="Rectangle-Copy-296" fill="#FFFFFF" x="19.6" y="49" width="10" height="10"></rect>
            <rect id="Rectangle-Copy-297" fill="#FFFFFF" x="19.6" y="117.6" width="10" height="10"></rect>
            <rect id="Rectangle-Copy-298" fill="#8A3629" x="88.2" y="127.4" width="10" height="10"></rect>
            <rect id="Rectangle-Copy-300" fill="#E3C771" x="78.4" y="58.8" width="10" height="10"></rect>
            <rect id="Rectangle-Copy-302" fill="#FFFFFF" x="88.2" y="9.8" width="10" height="10"></rect>
            <rect id="Rectangle-Copy-305" fill="#B14928" x="88.2" y="137.2" width="10" height="10"></rect>
            <rect id="Rectangle-Copy-306" fill="#E3C771" x="78.4" y="68.6" width="10" height="10"></rect>
            <rect id="Rectangle-Copy-307" fill="#FFFFFF" x="88.2" y="19.6" width="10" height="10"></rect>
            <rect id="Rectangle-Copy-308" fill="#57358E" x="88.2" y="0" width="10" height="10"></rect>
            <rect id="Rectangle-Copy-309" fill="#D08234" x="78.4" y="78.4" width="10" height="10"></rect>
            <rect id="Rectangle-Copy-310" fill="#D19437" x="88.2" y="88.2" width="10" height="10"></rect>
            <rect id="Rectangle-Copy-312" fill="#D08234" x="88.2" y="98" width="10" height="10"></rect>
            <rect id="Rectangle-Copy-314" fill="#8A3629" x="88.2" y="107.8" width="10" height="10"></rect>
            <rect id="Rectangle-Copy-317" fill="#E9CE4A" x="88.2" y="49" width="10" height="10"></rect>
            <rect id="Rectangle-Copy-318" fill="#D08234" x="88.2" y="117.6" width="10" height="10"></rect>
            <rect id="Rectangle-Copy-319" fill="#B4582A" x="39.2" y="127.4" width="10" height="10"></rect>
            <rect id="Rectangle-Copy-320" fill="#FBE901" x="29.4" y="9.8" width="10" height="10"></rect>
            <rect id="Rectangle-Copy-321" fill="#FBE901" x="29.4" y="137.2" width="10" height="10"></rect>
            <rect id="Rectangle-Copy-322" fill="#E3D9F2" x="29.4" y="19.6" width="10" height="10"></rect>
            <rect id="Rectangle-Copy-324" fill="#FBE901" x="29.4" y="0" width="10" height="10"></rect>
            <rect id="Rectangle-Copy-326" fill="#FFFFFF" x="29.4" y="88.2" width="10" height="10"></rect>
            <rect id="Rectangle-Copy-329" fill="#8B6A9E" x="29.4" y="29.4" width="10" height="10"></rect>
            <rect id="Rectangle-Copy-330" fill="#FFFFFF" x="29.4" y="98" width="10" height="10"></rect>
            <rect id="Rectangle-Copy-331" fill="#FFFFFF" x="29.4" y="39.2" width="10" height="10"></rect>
            <rect id="Rectangle-Copy-332" fill="#FFFFFF" x="29.4" y="107.8" width="10" height="10"></rect>
            <rect id="Rectangle-Copy-333" fill="#FFFFFF" x="29.4" y="49" width="10" height="10"></rect>
            <rect id="Rectangle-Copy-334" fill="#FFFFFF" x="29.4" y="58.8" width="10" height="10"></rect>
            <rect id="Rectangle-Copy-335" fill="#FFFFFF" x="29.4" y="78.4" width="10" height="10"></rect>
            <rect id="Rectangle-Copy-336" fill="#D08234" x="58.8" y="78.4" width="10" height="10"></rect>
            <rect id="Rectangle-Copy-337" fill="#CB8655" x="58.8" y="88.2" width="10" height="10"></rect>
            <rect id="Rectangle-Copy-338" fill="#B14928" x="68.6" y="78.4" width="10" height="10"></rect>
            <rect id="Rectangle-Copy-339" fill="#FFFFFF" x="29.4" y="117.6" width="10" height="10"></rect>
            <rect id="Rectangle-Copy-340" fill="#B4582A" x="98" y="127.4" width="10" height="10"></rect>
            <rect id="Rectangle-Copy-341" fill="#D19437" x="88.2" y="58.8" width="10" height="10"></rect>
            <rect id="Rectangle-Copy-342" fill="#FFFFFF" x="98" y="9.8" width="10" height="10"></rect>
            <rect id="Rectangle-Copy-343" fill="#B14928" x="98" y="137.2" width="10" height="10"></rect>
            <rect id="Rectangle-Copy-344" fill="#D19437" x="88.2" y="68.6" width="10" height="10"></rect>
            <rect id="Rectangle-Copy-345" fill="#FBE901" x="98" y="0" width="10" height="10"></rect>
            <rect id="Rectangle-Copy-346" fill="#D19437" x="88.2" y="78.4" width="10" height="10"></rect>
            <rect id="Rectangle-Copy-347" fill="#FFFFFF" x="98" y="88.2" width="10" height="10"></rect>
            <rect id="Rectangle-Copy-348" fill="#E9CE4A" x="88.2" y="29.4" width="10" height="10"></rect>
            <rect id="Rectangle-Copy-349" fill="#FFFFFF" x="98" y="98" width="10" height="10"></rect>
            <rect id="Rectangle-Copy-350" fill="#9BA147" x="88.2" y="39.2" width="10" height="10"></rect>
            <rect id="Rectangle-Copy-351" fill="#FFFFFF" x="98" y="107.8" width="10" height="10"></rect>
            <rect id="Rectangle-Copy-352" fill="#E9CE4A" x="98" y="49" width="10" height="10"></rect>
            <rect id="Rectangle-Copy-353" fill="#FFFFFF" x="98" y="117.6" width="10" height="10"></rect>
            <rect id="Rectangle-Copy-354" fill="#FFFFFF" x="29.4" y="127.4" width="10" height="10"></rect>
            <rect id="Rectangle-Copy-355" fill="#898279" x="39.2" y="9.8" width="10" height="10"></rect>
            <rect id="Rectangle-Copy-356" fill="#B14928" x="39.2" y="137.2" width="10" height="10"></rect>
            <rect id="Rectangle-Copy-357" fill="#AC9EC3" x="39.2" y="19.6" width="10" height="10"></rect>
            <rect id="Rectangle-Copy-358" fill="#FBE901" x="39.2" y="0" width="10" height="10"></rect>
            <rect id="Rectangle-Copy-359" fill="#FFFFFF" x="39.2" y="88.2" width="10" height="10"></rect>
            <rect id="Rectangle-Copy-360" fill="#FFFFFF" x="39.2" y="29.4" width="10" height="10"></rect>
            <rect id="Rectangle-Copy-361" fill="#FFFFFF" x="39.2" y="98" width="10" height="10"></rect>
            <rect id="Rectangle-Copy-362" fill="#FFFFFF" x="39.2" y="39.2" width="10" height="10"></rect>
            <rect id="Rectangle-Copy-363" fill="#FFFFFF" x="39.2" y="107.8" width="10" height="10"></rect>
            <rect id="Rectangle-Copy-364" fill="#FFFFFF" x="39.2" y="49" width="10" height="10"></rect>
            <rect id="Rectangle-Copy-365" fill="#CB8655" x="39.2" y="58.8" width="10" height="10"></rect>
            <rect id="Rectangle-Copy-366" fill="#FFFFFF" x="39.2" y="78.4" width="10" height="10"></rect>
            <rect id="Rectangle-Copy-367" fill="#CB8655" x="49" y="78.4" width="10" height="10"></rect>
            <rect id="Rectangle-Copy-368" fill="#DDDDDD" x="39.2" y="117.6" width="10" height="10"></rect>
            <rect id="Rectangle-Copy-369" fill="#DDDDDD" x="107.8" y="127.4" width="10" height="10"></rect>
            <rect id="Rectangle-Copy-370" fill="#D19437" x="98" y="58.8" width="10" height="10"></rect>
            <rect id="Rectangle-Copy-371" fill="#FFFFFF" x="107.8" y="9.8" width="10" height="10"></rect>
            <rect id="Rectangle-Copy-372" fill="#B14928" x="107.8" y="137.2" width="10" height="10"></rect>
            <rect id="Rectangle-Copy-373" fill="#B4582A" x="98" y="68.6" width="10" height="10"></rect>
            <rect id="Rectangle-Copy-374" fill="#FFFFFF" x="98" y="19.6" width="10" height="10"></rect>
            <rect id="Rectangle-Copy-375" fill="#FBE901" x="107.8" y="0" width="10" height="10"></rect>
            <rect id="Rectangle-Copy-376" fill="#D19437" x="98" y="78.4" width="10" height="10"></rect>
            <rect id="Rectangle-Copy-377" fill="#FFFFFF" x="107.8" y="88.2" width="10" height="10"></rect>
            <rect id="Rectangle-Copy-378" fill="#FFFFFF" x="107.8" y="19.6" width="10" height="10"></rect>
            <rect id="Rectangle-Copy-379" fill="#FFFFFF" x="107.8" y="29.4" width="10" height="10"></rect>
            <rect id="Rectangle-Copy-380" fill="#D19437" x="98" y="39.2" width="10" height="10"></rect>
            <rect id="Rectangle-Copy-381" fill="#FFFFFF" x="107.8" y="98" width="10" height="10"></rect>
            <rect id="Rectangle-Copy-382" fill="#FFFFFF" x="98" y="29.4" width="10" height="10"></rect>
            <rect id="Rectangle-Copy-383" fill="#FFFFFF" x="107.8" y="39.2" width="10" height="10"></rect>
            <rect id="Rectangle-Copy-384" fill="#FFFFFF" x="107.8" y="107.8" width="10" height="10"></rect>
            <rect id="Rectangle-Copy-385" fill="#FFFFFF" x="107.8" y="49" width="10" height="10"></rect>
            <rect id="Rectangle-Copy-386" fill="#FFFFFF" x="107.8" y="117.6" width="10" height="10"></rect>
            <rect id="Rectangle-Copy-387" fill="#B4582A" x="49" y="127.4" width="10" height="10"></rect>
            <rect id="Rectangle-Copy-388" fill="#FFFFFF" x="49" y="9.8" width="10" height="10"></rect>
            <rect id="Rectangle-Copy-389" fill="#B14928" x="49" y="137.2" width="10" height="10"></rect>
            <rect id="Rectangle-Copy-390" fill="#FFFFFF" x="49" y="19.6" width="10" height="10"></rect>
            <rect id="Rectangle-Copy-391" fill="#FBE901" x="49" y="0" width="10" height="10"></rect>
            <rect id="Rectangle-Copy-392" fill="#8A3629" x="49" y="88.2" width="10" height="10"></rect>
            <rect id="Rectangle-Copy-393" fill="#DDDDDD" x="49" y="29.4" width="10" height="10"></rect>
            <rect id="Rectangle-Copy-394" fill="#5F2B23" x="49" y="98" width="10" height="10"></rect>
            <rect id="Rectangle-Copy-395" fill="#B14928" x="49" y="39.2" width="10" height="10"></rect>
            <rect id="Rectangle-Copy-396" fill="#8A3629" x="49" y="117.6" width="10" height="10"></rect>
            <rect id="Rectangle-Copy-397" fill="#B14928" x="49" y="49" width="10" height="10"></rect>
            <rect id="Rectangle-Copy-398" fill="#CB8655" x="49" y="107.8" width="10" height="10"></rect>
            <rect id="Rectangle-Copy-399" fill="#57358E" x="117.6" y="127.4" width="10" height="10"></rect>
            <rect id="Rectangle-Copy-400" fill="#5D983A" x="117.6" y="58.8" width="10" height="10"></rect>
            <rect id="Rectangle-Copy-401" fill="#FFFFFF" x="107.8" y="58.8" width="10" height="10"></rect>
            <rect id="Rectangle-Copy-402" fill="#FBE901" x="117.6" y="9.8" width="10" height="10"></rect>
            <rect id="Rectangle-Copy-403" fill="#57358E" x="117.6" y="137.2" width="10" height="10"></rect>
            <rect id="Rectangle-Copy-404" fill="#FFFFFF" x="117.6" y="68.6" width="10" height="10"></rect>
            <rect id="Rectangle-Copy-405" fill="#B4582A" x="107.8" y="68.6" width="10" height="10"></rect>
            <rect id="Rectangle-Copy-406" fill="#FFFFFF" x="107.8" y="78.4" width="10" height="10"></rect>
            <rect id="Rectangle-Copy-407" fill="#54462B" x="117.6" y="19.6" width="10" height="10"></rect>
            <rect id="Rectangle-Copy-408" fill="#FBE901" x="117.6" y="0" width="10" height="10"></rect>
            <rect id="Rectangle-Copy-409" fill="#FFFFFF" x="117.6" y="78.4" width="10" height="10"></rect>
            <rect id="Rectangle-Copy-410" fill="#FFFFFF" x="117.6" y="88.2" width="10" height="10"></rect>
            <rect id="Rectangle-Copy-411" fill="#A83625" x="117.6" y="29.4" width="10" height="10"></rect>
            <rect id="Rectangle-Copy-412" fill="#54462B" x="117.6" y="98" width="10" height="10"></rect>
            <rect id="Rectangle-Copy-413" fill="#FFFFFF" x="117.6" y="39.2" width="10" height="10"></rect>
            <rect id="Rectangle-Copy-414" fill="#FBE901" x="117.6" y="107.8" width="10" height="10"></rect>
            <rect id="Rectangle-Copy-415" fill="#5D983A" x="117.6" y="49" width="10" height="10"></rect>
            <rect id="Rectangle-Copy-416" fill="#FFFFFF" x="117.6" y="117.6" width="10" height="10"></rect>
            <rect id="Rectangle-Copy-417" fill="#B4582A" x="58.8" y="127.4" width="10" height="10"></rect>
            <rect id="Rectangle-Copy-418" fill="#FFFFFF" x="58.8" y="9.8" width="10" height="10"></rect>
            <rect id="Rectangle-Copy-419" fill="#B14928" x="58.8" y="137.2" width="10" height="10"></rect>
            <rect id="Rectangle-Copy-420" fill="#FFFFFF" x="58.8" y="19.6" width="10" height="10"></rect>
            <rect id="Rectangle-Copy-421" fill="#FBE901" x="58.8" y="0" width="10" height="10"></rect>
            <rect id="Rectangle-Copy-422" fill="#E9E4B2" x="58.8" y="29.4" width="10" height="10"></rect>
            <rect id="Rectangle-Copy-423" fill="#CB8655" x="58.8" y="107.8" width="10" height="10"></rect>
            <rect id="Rectangle-Copy-424" fill="#E3CAB6" x="58.8" y="39.2" width="10" height="10"></rect>
            <rect id="Rectangle-Copy-425" fill="#CB8655" x="58.8" y="98" width="10" height="10"></rect>
            <rect id="Rectangle-Copy-426" fill="#E3CAB6" x="58.8" y="49" width="10" height="10"></rect>
            <rect id="Rectangle-Copy-427" fill="#5F2B23" x="58.8" y="117.6" width="10" height="10"></rect>
            <rect id="Rectangle-Copy-428" fill="#FBE901" x="127.4" y="127.4" width="10" height="10"></rect>
            <rect id="Rectangle-Copy-634" fill="#54462B" x="137.2" y="127.4" width="10" height="10"></rect>
            <rect id="Rectangle-Copy-429" fill="#5D983A" x="127.4" y="58.8" width="10" height="10"></rect>
            <rect id="Rectangle-Copy-430" fill="#FFFFFF" x="137.2" y="58.8" width="10" height="10"></rect>
            <rect id="Rectangle-Copy-431" fill="#A83625" x="127.4" y="9.8" width="10" height="10"></rect>
            <rect id="Rectangle-Copy-432" fill="#A83625" x="137.2" y="9.8" width="10" height="10"></rect>
            <rect id="Rectangle-Copy-433" fill="#FBE901" x="127.4" y="137.2" width="10" height="10"></rect>
            <rect id="Rectangle-Copy-638" fill="#FBE901" x="137.2" y="137.2" width="10" height="10"></rect>
            <rect id="Rectangle-Copy-434" fill="#5D983A" x="127.4" y="68.6" width="10" height="10"></rect>
            <rect id="Rectangle-Copy-642" fill="#5D983A" x="137.2" y="68.6" width="10" height="10"></rect>
            <rect id="Rectangle-Copy-435" fill="#FBE901" x="127.4" y="19.6" width="10" height="10"></rect>
            <rect id="Rectangle-Copy-436" fill="#FBE901" x="137.2" y="19.6" width="10" height="10"></rect>
            <rect id="Rectangle-Copy-437" fill="#5D983A" x="127.4" y="0" width="10" height="10"></rect>
            <rect id="Rectangle-Copy-644" fill="#FBE901" x="137.2" y="0" width="10" height="10"></rect>
            <rect id="Rectangle-Copy-438" fill="#FFFFFF" x="127.4" y="78.4" width="10" height="10"></rect>
            <rect id="Rectangle-Copy-646" fill="#FFFFFF" x="137.2" y="78.4" width="10" height="10"></rect>
            <rect id="Rectangle-Copy-439" fill="#FFFFFF" x="127.4" y="88.2" width="10" height="10"></rect>
            <rect id="Rectangle-Copy-648" fill="#FFFFFF" x="137.2" y="88.2" width="10" height="10"></rect>
            <rect id="Rectangle-Copy-440" fill="#54462B" x="127.4" y="29.4" width="10" height="10"></rect>
            <rect id="Rectangle-Copy-441" fill="#A83625" x="137.2" y="29.4" width="10" height="10"></rect>
            <rect id="Rectangle-Copy-442" fill="#FFFFFF" x="127.4" y="98" width="10" height="10"></rect>
            <rect id="Rectangle-Copy-649" fill="#FBE901" x="137.2" y="98" width="10" height="10"></rect>
            <rect id="Rectangle-Copy-443" fill="#FFFFFF" x="127.4" y="39.2" width="10" height="10"></rect>
            <rect id="Rectangle-Copy-444" fill="#FBE901" x="137.2" y="39.2" width="10" height="10"></rect>
            <rect id="Rectangle-Copy-445" fill="#54462B" x="127.4" y="107.8" width="10" height="10"></rect>
            <rect id="Rectangle-Copy-650" fill="#FBE901" x="137.2" y="107.8" width="10" height="10"></rect>
            <rect id="Rectangle-Copy-446" fill="#DDDDDD" x="127.4" y="49" width="10" height="10"></rect>
            <rect id="Rectangle-Copy-447" fill="#FFFFFF" x="137.2" y="49" width="10" height="10"></rect>
            <rect id="Rectangle-Copy-448" fill="#57358E" x="127.4" y="117.6" width="10" height="10"></rect>
            <rect id="Rectangle-Copy-651" fill="#54462B" x="137.2" y="117.6" width="10" height="10"></rect>
            <rect id="Rectangle" stroke="#000000" x="-0.5" y="-0.5" width="148" height="148"></rect>
        </g>
    </g>
</svg>